<svg xmlns="http://www.w3.org/2000/svg" viewBox="0 0 505.8 128.62" fill="#fff" xmlns:v="https://vecta.io/nano"><path d="M223.66 16.77c.53.12 1.06.16 1.6.1 1.45-.17 2.9-.13 4.34.03a1.69 1.69 0 0 0 .88-.11c.94-.34 1.77-.8 2.98-.87.4-.02.78-.07 1.14.08 1 .4 1.87.38 2.82-.1 1.1-.55 2.06-.6 3.18-.12 1.2.53 2.5.6 3.92.37.43-.07 1-.02 1.06-.4.33-.05.34-.47.9-.25.1.4 1.07.1 1.2.5.04.1.24.18.42.1.22-.1.13-.27-.04-.3-.54-.14-.7-.46-1.08-.66-.14-.07-.27-.2-.15-.27.13-.07.4-.08.6-.1.25-.01.33.15.5.22.17.08.37.15.58.04a.21.21 0 0 0 .09-.34c-.17-.26-.57-.27-.98-.3-.8-.04-1.3.34-2.04.4-1.33.05-2.6-.38-3.95-.13-.95-.02-1.9-.02-2.83.13-1.37.22-2.92 0-4.18.52-.02.01-.07 0-.1-.01-1.54-.04-3.1-.1-4.6.16-.6.1-1.06.46-1.8.34-.56-.1-.9.01-1.24.3-.38.34-.74.3-.98-.1-.08-.13-.25-.14-.42-.13l-1.63.05c-.27.03-.76-.01-.73.26.01.22 0 .48.54.6zm-18.22.83c1.86.01 3.7.4 5.6.07 1.14-.2 2.44.1 3.3-.3.57.02.97.1 1.2-.12.1-.1-.01-.17-.17-.25-.97-.46-1.92-.9-3.27-.4-.18.07-.5.02-.75.02-2-.05-3.93.3-5.92.25-.35-.01-.94.01-.93.3.02.24.57.43.93.43z"/><path d="M501.23 68.38c-.76-.14-1.58-.54-2.47-.12h0c-1.52-.47-1.64-.37-1.92-.4-.7-.12-1.3-.55-2.07-.02-.07-.54-.08-.57-.72-.45-.57.1-.96.14-.85-.3.04-.14-.17-.2-.32-.3-.58-.35-1.3-.44-2.1-.43l-.22.01c-.52.01-.65-.32-1.05-.4l-1.8-.73c-.5-.17-.32-.26.07-.4.48-.18 1.18.03 1.67-.37l-3.4-.36c-2.07-.05-4.17-.08-6.25.05-.57.04-1.16.01-1.74 0-.36-.01-.47-.1-.16-.26.32-.07.62-.13 1-.07.43.07.54-.1.44-.3.35-.56-1.78-.27-1.03-.96-.1-.01-.2-.04-.3-.04-.32 0-.63.06-.94.1-.72.08-1.48.1-2.1-.22a1.23 1.23 0 0 1 .2-.02c.45.03.8-.03 1.1-.3-.64-.04-1.1-.36-1.74-.17h-1.76l-.44-.12c-.25-.23-.94-.05-1.1-.37-.23.05-.5.17-.7.1-.86-.36-1.73-.27-2.62-.08l-6.72-.26-4.22-.22c-2.94-.35-5.88-.5-8.87-.5l-2.4-.06c-.2-.01-.42.03-.6-.07-.98-.53-2.2-.48-3.4-.44-.72.02-1.47.13-2.15.05-2.22-.27-4.5-.17-6.72-.35l-2.06-.06c-1.35.07-2.66-.06-3.97-.2-.1-.04-.2-.1-.34-.13-.66-.1-1.47-.06-1.53-.67-.03-.26-.45-.5-1-.2-.37.2-.8.25-1.3.23l-.03-.23c.5-.6 2.22-.9 3.08-.48.4.2.78.2 1.25.24-.28.1-.3.3-.67.3-.15 0-.38-.12-.4.06 0 .07.22.22.32.2.8-.04 1.75.06 2.26-.4.26-.23.4-.34.9-.24.28.06.55-.06.75-.2.58-.16 1.08.07 1.54.16.76.15 1.2-.2 1.46-.34.43-.25-.5-.28-.68-.54 1.07-.02 1.95.32 2.94.36.3.15.54.33.86.45.38.14.87.48 1.2.33.76-.36 1.45-.04 2.16-.07l.4-.02c.83.4 1.77-.22 2.67.1.2.06.27-.26.1-.38-.25-.2-.5-.4-1-.42l-.01-.25c.57-.3 1.57-.33 1.82-.1.35.32.85.32 1.26.47l1.06.22c-.22.32-.88.25-1.15.5.56.33 1.02.16 1.45-.1.3-.17.44-.45 1.02-.37 0 .3-.3.7.5.82.86.12 1.76.2 2-.55.27.22.42.5.84.2s.7-.32 1 .06c.07.1.45.06.42-.03-.2-.56.62-.13.8-.28l.65.04c.1.35.6.22.96.24l2.36.05c.66.03 1.27-.03 1.25-.44-.01-.4-.63-.47-1.26-.4-.07.01-.15.01-.22.02-.1-.4-1-.25-1.2-.52-.45-.6-1-.32-1.45-.05-.4.24-.8.25-1.27.16-.44-.08-.96-.05-1.36-.13-1.08-.2-2.37-.04-3.28-.55l.7-.12 8.3-.15c1.48.1 2.92-.12 4.4-.12l.55.02c2.02.2 3.9-.42 5.9-.3.2.01.6-.17.4-.27-.8-.4-.33-.67.12-1 .22-.17.17-.44-.05-.65-.44-.4-1.2-.17-1.8-.26-.04-.03-.06-.06-.08-.1.5-.43-.68-.33-.62-.62.3-.01.6-.04.83-.16.17-.04.28-.1.34-.16.6-.27 1.25-.52 1.24-1.05 1.3-.43 2.83-.63 4-1.23.3-.15.8-.17 1.24-.17 1.84 0 1.83-.01 3.34-.65l.85-.28c1.65-.6 3.44-1.05 4.88-1.82.37-.2.7-.44 1.15-.56.67-.18.9-.33.42-.72-.45-.36-.35-.65.6-.7.38-.02.8-.01.75-.38-.12-.7-.25-.76-1.34-.38-.03-.45.62-.82.54-1.25-.18-1.02 1.14-1.8 1.3-2.78.07-.4.04-.6-.67-.57-.47.03-.6-.12-.72-.27-.17-.2.2-.25.4-.3.92-.2 1.25-.46.57-1-.23-.17-.17-.57.04-.8.32-.34.07-.4-.4-.43h-1.3c-.93.07-1.86-.04-2.7-.16-.97-.14-1.9-.23-2.9-.22-1.5.01-3.02.3-4.53.01.16-.12-.9-.1-.12-.28.28-.07.43-.2.62-.3.6-.4 1.32-.6 2.37-.53l5.06.1c.98 0 2.37-.93 1.87-1.3-.58-.42-.2-.63.12-.93.33-.13.74-.26.7-.5-.1-.7.74-.8 1.63-.87.48-.04.86-.12.75-.46.26-.68-.22-1.12-1.52-1.36 2-.27 2.24-1.07 2.23-1.95 0-.36.12-.77-.97-.7-.42.03-.7-.26-.65-.42.06-.26.47-.14.8-.1.42.05.96.2.95-.3 0-.22.47-.3.82-.36.45-.08.9-.15.78-.48-.12-.37-.64-.33-1.13-.3-.33-.07-.65-.17-1.02-.15.01-.2-.36-.26-.47-.4-.45-.52-1.32-.94-1.33-1.58h0c.07-.01.13-.01.2-.01 1.04-.01 2 .45 3.06.24.88-.18 1.92.01 2.68-.4.2-.1.38.01.58.07.4.13.95.36.67-.22-.03-.06.25-.2.43-.25.54-.1 1.02.22 1.66.06.27-.07-.01.38.48.5.45-.5 1.3-.24 2-.32.77-.1 1.26-.01 1.65.34.94.2 1.5-.27 2.25-.42.35-.07.22-.32.17-.5-.05-.2-.35-.16-.6-.2-.45-.04-.8.15-1.45.18a3.12 3.12 0 0 1 2.28-.33c.28.06.6.05.66-.18.05-.22-.2-.3-.53-.27-.25.01-.52.1-.55-.14a.3.3 0 0 1 .04-.1c.33-.05.84.1.95-.14.1-.22-.36-.3-.7-.38-.2-.04-.33-.15-.5-.22h0c-.64.26-1.37-.1-2 .07-1.14.3-2.15-.14-3.2-.2-.58-.04-1.57.18-1.97-.35-.01-.02-.35 0-.4.04-.44.43-1.52.26-2 .67-.13.12-.53.2-.52-.05.02-.52-.62-.37-1.1-.44s-1.5.23-1.25-.48c.04-.1-.2-.07-.33-.06-.48.05-.63-.22-.9-.3-.43-.13-.44-.98-1.42-.34-.13.1-.37.06-.5-.01-.5-.28-1.17-.3-1.82-.43-1.88-.33-3.76-.48-5.7-.35-.8-.26-1.7-.2-2.56-.28l-.28-.1c-1.64-.32-3.32-.43-5.06-.27.48-.15 1.14-.15 1.13-.58h0c.7-.1 1.5.4 2.13-.16.2-.18.18.3.58.2.28-.8.28-.8-1.26-.8-.52 0-1 .06-1.5.14-1.12-.28-2.4-.03-3.5-.36-.1-.03-.33.06-.45.13-.32.16-.7.2-1.1.23-1.68.1-3.4-.15-5.04.22-.05-.03-.1-.08-.15-.08-2.74.25-5.5.18-8.26.24l-8.17.3c-.53.03-1.1.1-1.6-.1-.85-.3-1.96-.26-2.72-.16-1.47.2-2.9.25-4.38.2-1.28-.2-2.56.1-3.84-.01-.26-.02-.38.1-.4.23l-1.5.02-10.4.32c-.18-.4 1.45-.33.56-.87-.34-.2-.6-.3-1-.1-.46-.08-.03-.45-.53-.5.27-.16.63-.1.93-.08.9.05 1.76.04 2.65-.1.4-.07 1.3-.16 1.33.1.05.5.5.24.75.2 1.5-.24 2.97-.46 4.54-.42.4.12.93.14 1.23.47-.2-.53.08-.68.94-.57 1.05.14 2.02-.42 3.12-.17h0a1.61 1.61 0 0 0 1.1-.05c1.28-.5 2.92.08 4.24-.4.02-.01.1.05.16.07.2.1.45.18.6-.02.12-.14.01-.27-.24-.36-.7-.26-1.2-.06-1.7.25-.3-.25-.65-.47.2-.53.12-.01.22-.1.33-.15.52-.18 1-.38 1.66-.1.25.1.77.03 1.16.04l.86.01c.16.2.85.02.8.32-.05.27-.62.13-.9.26-.2.1-.52-.02-.66.16 1.4.35 1.47.37 2.2-.34.4-.37.6-.27.7.02.22.6 1.02.52 1.7.44.95-.1 1.6-.74 2.75-.56.02 0 .06-.02.08-.04.3-.26.8-.26 1.27-.28h-.01c1.55.33 3.04.02 4.52-.17.63-.08.63-.42.04-.64-.3-.12-.67-.14-1.03-.18-.55-.07-1.28-.02-1.62-.3-.7-.57-1.06-.28-1.48.1-.2.17-.3.45-.86.3-.76-.2-1.5-.1-2.23.04-.9.07-1.76-.03-2.63-.14-.35-.7-1.08-.08-1.6-.12-.32-.02-.5.38-.8.43-.78.15-.03-.35-.54-.47-.83-.2-2.86-.1-3.64.3-.02.03-.04.07-.05.1l-.37.16c-.1-.06-.2-.12-.25-.18-.1-.14.38-.32-.04-.43-.37-.1-.6.1-.8.24-.27.16-.4.4-.93.34-.17-.14-.25-.42-.66-.33-1.1.25-2.56-.06-3.3.7-.06-.12.05-.28-.23-.34-.5.07-1.28-.3-1.43.32-.04.16-.3.04-.42.01-.26-.07-.5-.16-.74-.24-1.2-.15-2.5.01-3.56-.46-.38.05-1-.2-1.07.26-.08.6-.67.77-1.58.43-.34-.13-.68-.23-1.1-.1-.74-.14-1.52-.78-2.18.06-.01.01-.07.02-.1.02-.97-.06-1.96-.06-2.9-.25-.25-.05-.3-.38-.74-.17-.36.18.1.33.1.54-.3-.04-.65-.02-.82-.1-.45-.26-.5-.3-.62.03-.14.4-.64.6-1.1.82-.4-.2.08-.38-.13-.55-.2-.14.04-.4-.4-.46-.36-.04-.46.13-.6.28-.3.28-.58.2-.93-.01-.92-.55-1.45-.5-2.14.15.01.02.02.04.04.05H409v-.06c-.58.1-.92.4-.4.57 1.06.33.25.4-.1.58-.55-.16-.9-.35-.64-.76.2-.3.03-.6-.47-.82-.35-.15-.8-.1-.73.1.14.42-.53.33-.76.5-1.15-.13-2.36-.1-3.47-.37-.16-.14-.32-.27-.67-.24-.37.04-1.1-.14-1.02.2.13.7-.63.23-.97.3-.34-.05-.7-.03-.95-.22-.6-.44-1.38-.26-2.12-.14-.94.35-1.86.74-3.1.48-.3.2-.36.43.1.48 1.36.13.93.7 1 1.14-.54.05-1.52.1-1.53-.05-.02-.6-1.36-.68-1.33-1.3.02-.4-.5-.7-1.37-.38-.56.2-1.24.15-1.82.08-1.26-.13-2.54.04-3.8-.1l-.3-.2-1.04.12c-.6.23-1.44-.1-2 .25-.24.28-.56.2-1 .13-.66-.13-1.42-.63-2.03.02l-.74.12c-1.3.1-1.43.2-.78.76-.04.12-.18.18-.38.23l-.23.02c-.16-.12-.14-.34-.35-.43-.3-.28-.76-.37-1.3-.37h-2.62a2.66 2.66 0 0 0-.3-.02l-.92-.01c-.35-.03-.7-.06-1.03.01l-.45.01c-.8-.03-1.57-.18-2.4-.15-2.77.1-5.55-.27-8.33.01-.67.07-1.32-.03-1.72-.4-.04-.03-.07-.07-.1-.1.12-.08.07-.18-.1-.25-.84-.35-.12-.36.28-.45h.3l.87.03 1.18.02c.06 0 .12 0 .18.01a13.75 13.75 0 0 0 1.44.07c.47.08.9.23 1.27.52.13.1.38.15.63.1l.2.02c.14.01-.03-.02.1 0 .57.05 1.12.2 1.7.12 1.56-.23 3.15-.2 4.73-.25.02 0 .04-.01.06-.01.34.2.7-.03 1.06-.1l.66-.12c.48.01.95-.04 1.37-.18.78-.27 1.62-.32 2.47-.34.17.03.35.07.5.13.24.33.7.4 1.26.33.32-.03.7-.1.97-.01.98.35 1.55.12 2-.3.01 0 .02.01.03.01a5.68 5.68 0 0 0 .3.09c1.3.22 2.57.5 3.88.03a.46.46 0 0 1 .2-.01c1.6.33 3.16.07 4.7-.15a6.11 6.11 0 0 1 .86-.08h.76c.67-.05 1.32-.16 1.95.08.32-.01.73.03.83-.2.12-.27-.42-.15-.58-.26-.23-.15-.5-.3-.24-.53l2.37-.07.7.32c-.1.62.8.44 1.28.47 1.25.07 2.5-.12 3.76.02.2.01.55.03.55-.1.01-.27-.38-.4-.78-.52-.1-.06-.34.03-.38-.1.1-.01.24 0 .32-.04.3-.13.84-.16.86-.4.02-.2-.4-.23-.7-.2-1.2.15-2.4.03-3.6.12-.27-.04-.66.01-.65-.25.36-.16.64-.07.95.07.24.1.48.02.67-.1.12-.07.33-.13.2-.25s-.33-.22-.62-.22c-1.95.04-3.9-.08-5.84.1-.44.01-.87-.14-1.3-.01l-.87-.02c-1.1.1-2.24-.17-3.3.15h-.01c-.53-.04-1.04-.1-1.6-.07-.8.05-1.72.13-2.42-.02-.58-.13-1.13-.05-1.67 0l-.64.02c-.17-.01-.34-.02-.5-.06-.14-.03-.4.1-.45.23l-.44.12c-.54.08-1.46-.33-1.5.38-.08.3.5.22.65.4a2.72 2.72 0 0 1-.25.11 2.28 2.28 0 0 1-.84-.12c-.18-.34-.2-.83-1.02-.84l-3.66-.15c-.4-.01-.8-.06-1.12.16-.12.1-.32.1-.47.01-.56-.33-.85-.4-1.55-.17-1.47.5-3.1.26-4.64.37-.47.04-.7-.36-1.3-.14-.67.24-.72-.04-.57-.33.08-.15.32-.3-.03-.44-.07-.03-.28 0-.28 0-.02.18-.54.26-.34.47.15.16.2.3-.2.3-1.34.01-2.66.27-4.03.08-.53-.08-1.05-.07-.97-.5.05-.24-.32-.16-.55-.16-.42.02-.97-.1-1.2.16-.15.18.36.2.56.32.03.17.75.1.43.38-.56.2-1.2-.08-1.77.12l-3.26.14c-1.38-.2-1.62-.42-1.28-1.15.1-.18-.1-.22-.32-.22-.32 0-.64.03-.96.05l-1.62-.04c-.54.2-.55.37.04.54.48.14 1 .22 1.7.36-.87.24-1.65-.05-2.26.22-.9-.22-1.3.27-1.95.42-.2.03-.35.01-.47-.08-.43-.33.05-.77-.4-1.1-.35-.12-.35-.56-.86-.44-.58.13-.13.46-.1.7.01.14.05.28.07.42-.02.45-.53.57-1.2.58l-2.63.05c-1.22.06-2.3-.2-3.6-.4.96-.1 1.18-.23.9-.4-.36-.23-.82-.14-1.22-.06-.5.1-.43.3-.18.5-1.23.1-2.3-.3-3.48-.36-.8 0-1.57.15-2.38-.03-.68-.15-1-.27-.06-.57-.4-.04-.6-.1-.86-.02-.8.2-1.53-.1-2.3-.07-.53.02-.9.7-1.6.13-.08.04-.18.07-.24.12-.44.34-.68.27-.77-.1-.03-.13-.15-.17-.37-.13-.92.15-1.8.04-2.68-.14-.33-.07-.83-.01-.46.24.5.34.46.83 1.12 1.1.02.04.06.1.04.1-.86.28-2.33.18-3-.24-.63-.4-1.3-.64-2.3-.48-.26.04-.7.03-.83-.06-.8-.6-1.7-.33-2.65-.17-.4.07-.92.3-1.2-.16-.14-.24-.6-.2-.92-.06-1.17.5-2.5.48-3.86.4-.33-.23-.75-.18-1.02-.02-.34.2-.1.45.1.66h0c-.04.3.32.27.66.27.5 0 1 .04 1.56.27-.73.1-1.5.1-.94.67.2.2-.16.37-.62.37l-1.3.04c-.65-.05-1.33.07-1.95-.13.32-.13.74-.22.34-.52-.53-.4.01-.37.48-.36l.64.34c.14.1.2.25.47.2.27-.06.1-.2.16-.32.3-.6-.3-1.07-.7-1.56-.2-.24-.55-.3-1-.15-.5.18-1.07.14-1.66.15-.86.02-1.63-.36-2.5-.14-.38.12-.78.17-1.23.2-.8.06-1.6-.13-2.35-.03-1.64.23-3.3.4-4.98.44l-4.13-.1c-1.56-.1-3.17-.06-4.7.2l-3.56.13c-1.14-.06-2.02.35-2.3.67-.7.78-.95.22-1.4-.01-.3-.16-.54-.6-.86-.48-.9.32-1.8.05-2.66.1-.94.04-2.05.3-2.87-.07-.8-.36-.93.04-1.25.23-.5.3-.14.47.33.62.16.05.48.04.38.24l-.7.12c-.17.04-.3.12-.22.24.08.1.33.17.44.1.85-.4 1.57.04 2.34.1.57-.1 1.16-.01 1.75-.1.6-.08.4.14.17.3-1.1.13-1.1.13-.35.67-.02.03-.03.06-.05.1h-.18c-.25-.1-.46.05-.7.04-.42-.15-.84.02-1.26-.01-.62-.01-1.23 0-1.85-.02-.34-.01-.85.08-.96-.16-.16-.35-.6-.3-1-.32a38.19 38.19 0 0 1-1.28-.09c.37-.28 1.5-.45.44-.73l-1.76-.42c-1 .04-2-.34-2.98-.15-1.05.2-2.02.02-3.03 0-.18 0-.36.02-.54.03-1.08.04-2.12.42-3.25 0a1.86 1.86 0 0 0-1.4.17c-.44.3.1.45.32.62.37.3-.38.2-.37.38h0c-1.05.07-.5.7-1.02.94l-.07.2c-.4.27-1.03.32-1.53.5-1.68-.1-3.4 0-5 .2-3.25.4-6.57.28-9.82.63l-5.08.4a10.76 10.76 0 0 1-1.4.07c-1.38-.05-2.77.28-4.14-.05-.03-.01-.07.01-.1.01-1.73.54-3.65.32-5.5.4-1.47.06-3-.23-4.4.3-.34.13-.78.07-1.17-.01-1.7-.34-3.43-.08-5.1.06l-3.8.3c-.34.04-.65-.06-.84-.24-.3-.28-.58-.2-.97-.03-1.02.46-2.1.84-3.46.38-.4-.13-.83-.06-1.27.01-.65.1-1.32.34-2 .16-1.93-.5-3.9-.3-5.87-.16-1.82.13-2.07.02-1.95-1.03.02-.15.17-.34-.27-.4-.37-.05-.7-.07-.96.15-.4.32-.35.65-.02.93.42.36.17.47-.43.53-1.63.18-3.26.01-4.88-.05-.66-.03-.2-.22.01-.35.57-.35.44-.6-.36-.76-.36-.07-.73-.04-1.1-.22-1.04-.52-1.1.26-1.55.45-.53.22-.25.47.22.64.7.25.8.65.1.76-1.3.2-2.5.6-3.93.64-1.24.04-2.5-.32-3.73.07-.3.1-.9.16-1.24-.05-.76-.46-1.53-.72-2.78-.75-1.54-.05-3.2-.12-4.6-.65-.25-.1-.96-.3-.9.25.02.2-.53.27-.9.13-1.07-.4-1.1-.4-1.54.25-.1.16-.03.42-.5.4-.4-.02-.43-.23-.53-.4-.18-.35-.28-.95-1.08-.18-.1.1-.3.12-.48.07-.95-.32-1.9-.14-2.84.01l-3.86.45-5.2-.03c-5.33.06-10.66-.08-15.97.35-2.23.18-4.5.2-6.7.43-3.28.34-6.54.8-9.8 1.2-.34.04-.73.12-1.04.05-1-.2-1.92.02-2.87.1-1.22-.14-2.4.3-3.6.16-.54-.06-1.03-.03-1.5.12-.46.15-.93.2-1.42.17-1.87-.08-3.73.1-5.6.2-.92.04-1.83-.08-2.75.06-1.37.2-2.7.5-4.15.45-.8-.02-1.63.2-2.44.3-1.02-.03-1.95.26-2.92.4-.45.06-.95-.1-1.33.13-.8.46-1.66.7-2.7.84-1.83.27-3.6.64-5.44.06-.48-.15-.98 0-1.16.3-.26.42-.72.46-1.23.5-.97.05-1.93.15-2.86.33l-4 .24c-.8-.08-1.53.18-2.3.2-.17.01-.27.07-.2.23.18.37-.22.5-.6.65l-1.35.07c0 .05.01.1.01.14l1.34.05c.43.2.45.22.32.3-.4.24-.7.54-1.33.6-.42.04-.93.03-1.26.3-.56.01-1.1.05-1.62.23-.43.02-.85-.04-1.28-.07-1.5-.1-2.97.07-4.43.28h-.07l-.07.02c-1.4-.04-2.8-.16-4.2-.24-1.94-.12-3.88.08-5.83-.13-1.44-.16-2.9-.14-4.37-.05-.56.04-1.1.15-1.7.12-2.8-.15-5.6-.38-8.4-.4a51.26 51.26 0 0 0-10 .92c-.6-.12-1.32-.15-1.82-.4-.45-.2-.84-.22-1.28-.17-.37.04-.66.16-.24.43.17.12.4.3.28.42-.48.44.05.53.43.68-.38.2-.88.1-1.28.24-.47-.01-.64.3-.36.37.68.15.94.7 1.67.74.9-.07 1.7.13 2.5.34.2.05.37.1.45.28.35.8.58.9 1.75.98.93.06 1.82-.2 2.74-.13.3.12.63.1.94.1.9-.04 1.78.04 2.9.17-.9.2-1.6.62-2.23.36-.54-.23-.9-.14-1.37-.08l-3.12.33c-.2-.23-.4-.33-.72-.04-.28.25-.7.33-1.17.4-.4.06-1.15-.18-1.2.4l-.18-.1c.05-.17.1-.33-.28-.33.2-.23.37-.4-.28-.34-.5.06-1.1.17-1.1-.5-.3.32-.17.64-.38.9-.02.02-.04.04-.05.06-.03.03-.04.07-.04.1-.18.42-.63.48-1.26.34.34-.04.76-.04.7-.37-.05-.33-.5-.2-.76-.28-.23-.06-.4.01-.6.1-.68-.08-1.34-.14-1.92.22-.3.18-.74-.1-1.05.14-.67-.1-1.4.02-2.03-.15-.02.12-.06.28-.1.45-.13.06-.12.15-.1.24-.13.03-.26.1-.38.08-.33-.01-.67.06-.66.27.01.15.3.3.66.32.58.01 1.16 0 1.74.03.38.02.65.25.67.23.4-.42.62.02.86.12.33-.24 0-.42.02-.6.3.03.6.12.85.08 1.18-.17 2.28.03 3.4.24.26.14-.22.44.28.55.43.1.04-.33.45-.23.04.28.3.48.72.58-.1.1-.4.07-.34.24.05.13.26.1.4.1.47-.03.94-.08 1.4-.12l2.48.03c.6.01 1.2.1 1.77-.1.1 0 .18-.01.28-.01.43.55 1.3.7 2.07.36.1-.04.26-.03.4-.04h0c.25.3.55.1.82.02.2-.06.43-.2.58-.13.64.32 1.24.01 1.85-.01.3.1.64.12.83-.04.44-.36.73-.26 1.17.01a1.39 1.39 0 0 0 1.33.05c.4-.22-.24-.28-.24-.46.8-.12 1.58-.1 2.37-.05.4.02.82-.03 1.22-.05.4-.05.66.13.95.25.9.38 2.92.26 3.65-.23.23-.15.5-.2.7-.05.32.24.73.26 1.12.23.9-.06 1.43.35 2.07.65-.16.16-.28.04-.4.05-2.75.23-5.53.1-8.3.32-1.73.13-3.5.05-5.24.1-1.53.05-3.06.23-4.6.2-1.32-.01-2.58.13-4 .3.26.04.38.07.5.08 1.98.03 3.96.1 5.95-.01 2.08-.12 4.18-.1 6.27-.1 1.22 0 2.44-.3 3.67.05.18.05.6.08.9.04 2.25-.28 4.55-.16 6.8-.34 1.03-.08 2.04.1 3.07.1.14.08.38-.03.5.12-.04.07-.1.13-.13.2 0 .32-.45.4-.67.6-.96.2-1.96.04-2.93.1H40.6c-.43.06-.7.2-.52.53-.87.1-1.58-.5-2.52-.4.14.3.54.24.68.4l-.75.22c-.06-.03-.1-.07-.17-.1.04-.17.01-.34-.18-.46-.22-.14-.65-.17-.58.06.12.4-.33.35-.53.5-.16.08-.32.15-.5.23-.55-.23-1.16-.24-1.77-.25l-.03.06h-.02c.02-.02.03-.04.05-.05-.38-.45.6-.18.53-.48-.54-.1-1-.07-1.15.4-.78-.56-.8-.56-1.52-.1-.07.05-.1.05-.23.04-.45-.06-.95-.14-1.26.2-.5-.03-1-.14-1.47.08-.23-.12-.46.02-.7 0-.2-.01-.47-.05-.5.16-.02.2.23.23.45.24.7.01 1.42.16 2.07-.15.34.25.74.18 1.14.1h0c.42.13.85.15 1.3.1a.59.59 0 0 0 .14.02c.3.22.57.06.84-.04.2-.08.34-.24.62-.16.06.16-.18.3-.03.47l.87-.06c.05 0 .1 0 .15.02.6.22.86-.08 1.17-.33h0c.16.2.3.48.68.12.1-.1.2-.14.4-.08.45.14.9.1 1.34-.07.1-.05.66.01.9.01.14 0 .8.25.44-.25-.07-.1.2-.03.27-.07.42.27.92.36 1.5.32.53.5.8.5 1.33 0 .12-.1.25-.12.42-.1.53.05.8.27.78.82.28-.36.53-.42.88-.4.46.03.42-.2.34-.4.67-.13 1.37.28 2.07-.08.12-.06.55-.01.6-.2.05-.18-.3-.22-.5-.3-.1-.04-.2-.07-.15-.18.85-.3 1.68.04 2.53.06.12.15.65.32-.02.45-.15.03-.24.06-.15.18a.34.34 0 0 0 .3.16c.36-.01.66-.17.9-.32.32-.2-.1-.23-.24-.34-.17-.14.16-.15.17-.25.1-.03.2-.06.3-.08 0 .2.43.3.32.54-.1.2-.25.4.12.52.46.15.44-.25.7-.32.6.05 1.2.1 1.8.24.54.37.6-.06.83-.23.1 0 .23 0 .34-.01.12.04.27.06.36.1.63.38 1.2.35 1.87 0 .2-.1.55-.33.92-.12.07.04.2.01.26-.07.07-.1-.04-.17-.17-.2-.15-.03-.3-.05-.45-.08-.18-.66-.18-.66.78-.65.05.2-.1.52.5.45.1.1 1.4.6 1.62.62.13.01.27.03.4.03.72.03 1.58.22 2.13.1 1.26-.3 2.56-.01 3.77-.3.16-.5.5-.6 1.7-.5-.88-.04-.88-.04-1.17.2 1.13.32 2.3.55 3.66.7-.86.2-1.63.2-2.24.48-.5.23-1.05.01-1.55.15-.1-.24-.26-.38-.66-.3-.58-.13-1.14-.15-1.67.12-.94-.4-1.96.05-2.95-.12-.72-.13-1.47.17-2.23.1-.5.07-1-.13-1.62 0l.86.4c-.63.16-1.3.13-1.96.1-.44-.02.02-.1-.01-.16.1-.01.3-.01.24-.08-.1-.14-.3-.27-.56-.26-.7.02-1.4.06-2.1-.01-.13-.01-.3-.03-.3.1-.01.1.1.16.25.2.04.12.32.02.34.17a6.58 6.58 0 0 0-.22.06c-.18.05-.52-.01-.47.2.05.2.35.1.55.1h2.56c-.17.1-.38.08-.5.2-.22.04-.3.1-.04.18.38.1.8.07 1.2.05.75-.06 1.53.12 2.27-.1.6.1 1.2.15 1.8-.02.1 0 .22.01.33.01 1.46-.01 2.94.22 4.36-.17-.2-.27-.6-.1-.87-.17-.3-.08-.64.08-1.12-.06 2.86-.4 5.53-.55 8.36-.12-2 .3-3.92.04-5.78.34.74.04 1.46.26 2.16.18.78-.1 1.55-.1 2.3-.1l5.33.04c1.85-.02 3.7-.22 5.54.01.4.05.72-.34 1.18-.17.25.5-.54.23-.7.43-.5.01-.97.22-1.5.1-.15-.04-.4-.27-.47.01-.04.14-.07.4.43.37.38-.03.76.1 1.1.2.6.2 1.26.26 1.93.24.06.02.1.04.17.04.46.1.93.2 1.42.18.25-.01.66 0 .35-.32-.34-.24-.3-.4.23-.37 1.37.07 2.76.12 4.1.27.86.1 1.75.1 2.6.3-2.2.55-4.48.27-6.76.23.13.24.4.27.67.3l3.1.38c1.3.14 2.65.18 3.7.83.08.05.33.02.16.16-.05.04-.2.04-.3.05-.2-.2-.35-.01-.5.04-1.5.05-2.95.23-4.4.44-1.16.13-2.34.2-3.47.4-.63.1-1.3.03-1.88.26-1.3.1-2.6.16-3.76.66a10.83 10.83 0 0 0-5.2 1.12c-1.44-.05-2.78.5-4.24.33-.06-.01-.2.04-.2.06.01.5-.54.28-.85.3-.38 0-.77-.02-1.12.06-1.26.3-2.57.16-3.85.18-2.13.03-4.26-.24-6.4-.16-.6.02-1.18-.01-1.78-.05-.9-.07-1.86-.15-2.74-.02-.7.1-1.34.2-2.04.2-2.18-.04-4.34-.35-6.54-.18-.58.04-1.2.06-1.74-.17-.55-.24-1.15-.23-1.73-.14-.66.15-1.22.17-1.78.12-2.2-.2-4.43-.3-6.66-.2-.68.03-1.38-.02-2.18.15.3.08.46.15.63.17l3.5.4c.88.12 1.74.36 2.63.44l6.6.52c.2.17.76.12.7.38-.07.3-.54.1-.82.18-.14.03-.28.1-.45.14.26.15.47.3.7.4.16.07.36.12.3.28-.05.15-.27.17-.45.18-.76.04-1.4.3-2.12.44-.5-.04-.97.14-1.46.01-.23-.35-.7-.27-1.06-.22-1.23.15-2.48.15-3.7.1-1.22-.06-2.23.22-3.24.56.38.47 1 .77 1.64.77 1.27 0 2.52.13 3.8.14.6.01 1.22-.22 1.78 0 .34.14.65.13 1 .1.05-.01.1-.01.14.02.16.8.65 1.38 1.95 1.45.48.1.9.4 1.48.23.42 0 .65.07.92.37.55.62 1.57.84 2.6.86 1.22.03 2.4.22 3.6.37 1.35.17 2.72.38 4.07.4 2.5.06 4.88.7 7.38.72.47 0 .94.13 1.4.2-2.46.23-4.87-.1-7.3-.24l-7.27-.47c-2.42-.1-4.76-.6-7.28-.66.84.62 1.82.6 2.77.7 2.03.22 4.1.26 6.08.63a1.26 1.26 0 0 0 .1.03c.62.18 1.4-.06 2.03.37-.6.15-1.14 0-1.65.06v-.01c-.53-.28-1.1-.17-1.76-.06.4.2.73.28 1.1.28.44.05.6.54 1.12.38.5-.17.98-.08 1.48-.06.43.07.8.37 1.3.14h.01c-.06.2.62.4.1.58-.26.1-.45.42-.9.22-.1-.05-.3-.01-.3.1-.02.08 0 .2.07.26.1.1.26.06.34-.02.28-.26.57-.06.77.02.38.16.76.23 1.22.13-.07.34-.53.4-.84.7h.87c.04.07.08.13.13.2.07.1-.28.3.1.35.27.03.3-.1.3-.27s.2-.12.28-.01c.1.14.25.18.45.1l.96.23c0 .03 0 .06-.01.1-.05 0-.1 0-.14.01-.55-.01-.86.36-1.42.42-.24.02-.08.33.3.35.03.02.07.05.1.07.01.01 0 .04-.02.05-.47.3-1.07-.14-1.55.12-.23-.14-.17-.48-.66-.45.1-.6.1-.6-.87-.56-.02 0-.05-.05-.08-.07.04-.2.5-.05.5-.3-.01-.1-1.64-.7-1.7-.62-.18.27-.56.1-.9.24.7-.06.2.53.76.53.01.3.34.37.67.43.27.08-.05.15-.01.22-.3-.07-.73-.07-.86-.2-.3-.32-.66-.3-1.08-.24-.52-.04-.94-.3-1.35-.4-1.05-.2-2.14-.5-3.3-.3-.3.05-.7.1-.85-.25-.07-.14-.38-.2-.63-.1-.16.07-.28.12-.5.1-1.03-.14-2.08-.25-3.1.08-.17.06-.38.07-.4.23-.01.17.17.2.37.23a11.4 11.4 0 0 1 .62.11c.25.04.33.15.32.33-.02.32-.63.3-.68.57-.1-.1-.23-.17-.32-.27-.27-.3-.64-.5-1.13-.32-.35.12-.66.1-1 .07-.42-.02-.9-.13-1.12.3-.07.13-.27.04-.3-.1.01-.13.01-.25.02-.38.98-.17 2-.3 2.88-.76-.53-.3-.96.01-1.3-.05-.78-.16-1.5-.47-2.14.16-.02.02-.1.02-.15.02-.8-.07-1.67.04-2.37-.35-.6 0-1.2-.01-1.78-.01h0c-.28-.34-.76-.33-1.14-.2-.27.1-.75-.03-.82.3a7.53 7.53 0 0 0-.47.01c-.35-.02-.8.05-1.02-.08-.37-.2-.68-.12-.96-.01-.3.12-.52.3-.7-.06-.05-.1-.24-.1-.36-.07-.23.06.01.15-.01.2-.1.26.14.6-.5.74l.68.22-.58.07c.08.15.45.02.4.2-.04.14-.42.28-.45.25-.25-.22-.8.25-.84-.14-.03-.38-.38-.4-.72-.45-2.18-.27-4.37-.53-6.54.01-.87.22-1.66.22-2.5-.02-.15-.04-.35-.08-.52.1l1.4.26c.3.05.5.07.42.4-.1.37.1.64.84.56.34-.04 1.07-.16.7.44-.06.1.05.26.08.4-.93.08-1.8-.17-2.72-.1.5.1 1.12.8.97 1.17-.24.6.28 1.1.35 1.6.12.9 1.15.43 1.6.72.02.01.04.03.05.04-.72.05-1.35.22-1.78.65-.03.02-.05.04-.05.07-.01 0-.01 0-.02-.01.02-.02.05-.04.07-.06-.18-.17-.58.04-.7-.2.01-.3-.27-.36-.6-.37-.12 0-.3 0-.33.1-.06.2.27.15.34.26-.1.17-.45.03-.55.2-.1 0-.18.01-.27.01-.1-.1-.13-.27-.26-.32-.5-.17-.34-.35-.06-.55.15-.06.42-.05.38-.2-.02-.1-.23-.16-.4-.13-.62.13-1.28.01-1.9.18-.2.06-.54-.01-.56.23-.02.25.43.07.53.24-.14.05-.3.1-.42.15s-.36.05-.27.2c.06.1.2.2.38.15.32-.08.8-.1.6-.48.36.16 1.36-.22.97.55-.16.01-.3.01-.47.02-.65-.1-.88.43-1.4.53-.08 0-.16 0-.23.01l-.73-.15c.6-.3.6-.3-.06-.53-.07-.23-.23-.58-.55-.5-.48.12-1.14-.02-1.45.4-.56-.01-1.26.1-1.64-.07-1.06-.5-1.67-.56-2.5 0 .33.2.9-.18 1.02.06.33.62 1.15.32 1.64.53-.3 0-.63-.01-.9.12-.7.34-1.5.37-2.3.34-.35-.02-.83.14-.78-.35.01-.13-.32-.17-.55-.1-.77.24-1.64.23-2.4.46-.3.1-.9-.1-.88.2.02.32.65.2 1 .28.1.02.2-.01.32 0l2.58.12c.01.05.01.1.02.15L3 70.4c-.18.03-.5-.1-.52.13-.03.2.28.18.47.23a1.85 1.85 0 0 0 .47.08c1.74.03 3.5-.05 5.14.47.13.04.44.02.45-.02.2-.43.53-.13.62-.01.17.23.48.2.72.28.8.3 1.83.04 2.54.53.15.07.38 0 .5.14.3.4.8.34 1.32.28.16.01.3.02.47.04.95.17 1.92.23 2.87.43.46.1 1.2.2 1.62-.23.08-.08.2-.12.35-.08.8.2 1.65.06 2.46.22.01.1-.26.22.13.33.58.16 1.08.26 1.54-.13 1.04.06 2.05.2 3.04.44.6.15 1.1.56 1.86.37.04-.01.13.05.17.08.3.28.78.13 1.16.24.14.04.42 0 .38-.2-.03-.14-.27-.17-.4-.12-.52.23-.9-.1-1.34-.14-.35-.02-.28-.2-.23-.33.07-.2.26-.2.48-.07.3.2.85.14.92.01.34-.64.86-.26 1.33-.16.5.1.94.25 1.52.2.88-.08 1.77-.18 2.66-.1l.15.2c-.3.15-.15.26.1.3.23.04.56-.01.6-.18.03-.22-.3-.1-.47-.13.03-.34.44-.15.66-.22a38.42 38.42 0 0 0 3.22.24c.3.32.26.48-.37.45-.63-.02-1.27-.18-1.9-.02-.14.1-.52.14-.34.36.1.15.33.07.5.02.22-.07.4.03.62.05.92.07 1.8.4 2.76.2.4-.08.52-.16.2-.38.07-.14.5-.15.4-.3-.33-.55.37-.27.6-.36.18.03.3.12.53.1 2.13-.15 4.26.01 6.4 0-.57.08-1.1.2-1.5.45-.25.15-.47.2-.8.2-1.34.04-1.34.05-1.52.97 0 .02-.01.04-.02.05-.37.23-.68.54-1.3.28-.17-.07-.5.03-.54.17-.18.5-.75.5-1.3.57-.3.04-.77-.08-.76.32-.07.06-.13.13-.2.2-1.14.3-2.35.42-3.48.75-.72.2-1.53.3-2.18.63-.85.1-1.33.53-1.85.92.83-.06 1.58-.25 2.33-.45.05-.01.1-.02.16-.04h0c.52.04.85-.27 1.3-.32h0c.24.04.4-.05.6-.12.82-.34 1.7-.44 2.64-.44.6.24 1.2.48 1.95.24.16-.05.4-.06.5.07.14.18-.1.26-.27.34-.37.17-.84.25-1.07.55-.24 0-.47 0-.7-.07-.54-.15-2.5.2-2.63.54-.3.77-1.1.7-1.94.76-.5.03-1.1-.06-1.43.26-.7.7-1.8.88-2.87 1.07-.85-.03-1.4.32-1.66.8-.26.5-.68.74-1.4.78-.27.02-.5.03-.47.27.05.32-.24.56-.35.84-1.02.35-1.6 1.08-2.6 1.45-.2.07-.2.26-.32.37-.44.44-.64 1.08-1.5 1.23-1.75.3-2.75 1.3-4.1 1.97-.47.23-.86.55-1.43.7-.6.16-.96.52-.8.92.27.7-.14 1.15-.8 1.62-.26.18-.5.42-.73.62-.42.35-.72.85-1.5.96-.5-.07-.66.3-1.08.4-.93.2-1.72.64-2.5 1.07-.26.15.02.82-.82.42-.01-.01-.1.1-.17.1-1.1.22-1.13.95-1.64 1.43-.38.36-.07.45.38.48.18.01.37-.04.56-.05.9-.07 1.46.15 1.74.65.02.04.14.1.18.1.48-.13.67.1 1.03.25.56.23.74.58.9.9.3.64.88 1.08 1.7 1.4.06.23.12.27.63.33.24.03.6 0 .58.2-.05.4.33.84 0 1.2-.6.68.33.97.74 1.3.36.3.4-.26.67-.34.07-.02.16-.03.24-.02.75.03 1.37-.25 2.05-.38.7-.13 1.47-.22 2.18-.17.67.05 1.3.2 1.94-.06.2-.08.44-.1.53.1.14.32.32.64.34.96.02.47.3.7.98.67.33.18.92.1 1.02.52.03.13.18.12.3.03.78-.57 1.46-.3 2.12.12h0c.17.3.2.64.2.97.03.6.82.9 1.94.62-.73 0-.86-.36-1.24-.46.26-.43.67-.23 1.05-.15.28-.02.58.7.84-.02.03-.1.23-.06.36-.05.2.01.13.1.14.2.14.8.42.97 1.6 1 .45.06.9 0 1.33.26.37.23 1.14.14 1.27-.12.24-.44.67-.4 1.13-.47.07.18.48.2.42.44-.15.54.42.4.8.4.14 0 .33-.2.4-.1.4.55.87.08 1.2.01.3-.06.75-.14.9-.4.04-.08-.07-.13-.17-.16-.4-.14-.8-.01-1.17.07-.1.02-.13.1-.22.15-.16.08-.37.13-.5-.01-.3-.3-.87-.37-1.05-.73-.05-.1-.14-.23.15-.23.38.24.92.03 1.32.23.48.24 1.1.04 1.62.22.05.07.2.13.23.1.18-.36.56-.26.92-.2.36.07.74.1 1.08.2.4.1.35.35.03.43-.55.14-.86.35-.92.74-.02.1-.35.05-.24.2.08.12.3.13.43.1.72-.24 1.48-.04 2.22-.1.32.2.55.04.84-.17-.3.48-.17.65.5.5.18.04.25.14.32.25l.3.33c.1.14.28.23.43.12.58-.43 1.22-.15 1.83-.1.17.52.34.58.86.3-.06-.28.16-.35.5-.33.46.03.9-.01 1.26-.22.28-.1.15-.28.16-.44a1.77 1.77 0 0 1 .01-.23c.4-.1.2-.38.37-.55.48-.08.9-.02 1.3.2a.36.36 0 0 1 .11.02c.01.1.05.2-.08.3-.58.43-.58.42.28.6.2.04.38.1.6.1l-.4.24c-.28.16-.14.35-.07.53.58-.25.67.37 1.15.3.33-.1.54-.42 1-.23.17.06.33.33.5-.03.15-.33.4-.63.6-.95.07-.1.14-.2.34-.23.66-.02 1.37-.46 1.95.1-.8.45.14.55.35.8-.2.13-.67.07-.53.4.06.14.04.3.3.34.25.03.6-.08.62-.18.07-.3.57-.4.62-.68.14-.06.27-.23.45-.03.28.3.65.1 1 .08-.12-.32.58-.4.45-.7-.01-.02-.08-.04-.13-.06-.4-.18-1.18.04-1.23-.53.13-.05.25-.01.38.02 1.57.36 1.76.6 1.38 1.6-.05.12-.1.28.12.34.2.05.45.1.57-.07.3-.5.6-.18.88 0 .04.6.6.26.96.24.2.1.38.23.66.2.1.3.34.3.63.13.16-.1.3-.22.52-.23.72.2 1.5.32 2.12.66a6.78 6.78 0 0 1-.34.23c-.1-.05-.2-.1-.3-.14-.3-.33-.57-.4-.83.02v.23c-.02.14-.13.3.12.4.56.17 1.38-.17 1.5-.62.5-.15-.18-.37.07-.56.47.15.9.2 1.2-.22-.04.12-.2.2-.1.28.44.4.95.08 1.4.04.53-.05.18-.24.06-.38-.1-.1-.03-.2.1-.23.63-.16.28-.24-.05-.34-.27-.08-.34-.2-.16-.38.07-.07-.1-.3.1-.25.62.13 1.1-.13 1.62-.2a.47.47 0 0 1 .5.22c.1.13-.02.26-.17.34-.55.3-.56.33-.03.7.37.2-.2.2-.14.34-.35.37-.6.72.3.9.4.2.7.25.66-.22-.02-.2-.06-.42.35-.15.4.3.73.34.98-.1.25-.03.45-.2.78 0 .3.2.78.14 1.18 0 .57-.47 1.18-.54 1.98-.26.14.05.4.1.45.07.66-.46 1.14-.06 1.68.13a1.39 1.39 0 0 0 .7.03c.45-.13.9-.1 1.35-.1-.08.35-.45.33-.83.34-.56.02-.77.3-.42.6.5.38.92.9 1.9.64.2.23.55.2.87.2.66-.02 1.3-.03 1.6.5.07.12.34.15.4.07.12-.2.22-.45.2-.66-.02-.13-.3-.22-.6-.18-.22.03-.5-.07-.7-.04-.58.1-.8-.12-.9-.46 0-.07-.01-.14-.01-.2l.45-.18c-.1-.12-.3-.12-.44-.18-.27-.14-.7.1-.87-.2.47-.17 1.06-.05 1.52-.26.64.1 1.24.35 1.93.24.5.26.1.6.16.9.01.04 0 .1.02.1.84.1 1.66.36 2.5.3.36-.02.5 0 .68.23-.42-.03-.8-.1-1.15-.08-.22.01-.55-.1-.66.08-.12.2.26.25.37.4 0 .1 0 .2-.01.32 0 .15-.2.34.1.43.36.1.42-.12.55-.27.03-.04.14-.04.2-.07.43.06.83.06.95-.32.5.25 1.08-.04 1.64.12.65.2 1.43.4 2.05.3.63-.1.97.01 1.38.23v.14c-.1.1-.22.17.03.24a2.91 2.91 0 0 0 .93.08c.6-.1 1.2-.08 1.78.12h.01c.5.13 1 .3 1.47-.02.24.02.02-.47.48-.2.1.24.3.5.62.17.33-.35.74-.3 1.18-.3.27-.01.58.1.8-.06-.01-.26-.5-.15-.53-.4.38-.14.68-.38 1.2-.23.28.08.64.07.96.06.4-.02.17.55.74.33.33-.13.1-.4.3-.53a1.31 1.31 0 0 0 .43.3c1.68.72 3.28 1.48 5.08 2.14 2.75 1 5.6 1.57 8.9 1.64l6.18.16c1.32.07 2.66.01 3.96.05 2.03.07 4.04.3 6.1.2.1-.01.22.01.32.03 1.95.33 3.92.26 5.9.07.37-.04.7-.38.94-.22 1 .64 2.14.6 3.46.46.25-.03.56.13.94-.07.54-.3 1.17-.78 1.9-.06.16.16.6.32.9.3 1.6-.01 3.04.36 4.57.5.27.03.55.1.6-.1.12-.46.65-.24.98-.17.42.08.8.25 1.2.4.28-.76.36-.76 1.36-.3.16.07.48.6.8.03.05-.1.07.03.1.06.5.42 1.36.57 2.1.65.82.1 1.8.17 2.52-.33.48-.33 1.14-.72 1.95-.17.13.1.33.13.48.05.6-.3.7-.02.84.22.17.33.46.56 1.14.5 1.43-.1 2.87-.08 4.3-.24.62-.07 1.55.23 1.56-.48 0-.03.27-.04.4-.08.76-.24 1.56-.1 2.35-.1-.27.26-.66.55.28.65-.22.2-.32.5.08.6.58.15.4-.2.53-.36.16-.2.43-.06.66-.05.82.04 1.65.22 2.45-.05.46-.05.72.15 1.07.25 1.02.3 1.92.06 1.9-.5.87.08 1.63.58 2.52.4a13.1 13.1 0 0 1 3.62-.11c1.13.13 1.52-.1 2.08-.44.65-.04 1.26 0 1.84.17.02.02.04.03.07.05-.18.18-.7.15-.57.4.03.06.24.13.32.12.97-.17 2.15.15 2.97-.4.33.5 1.02.5 1.8.42.2-.02.52.2.67.16.4-.1 1.04.2 1.17-.2.15-.45.16-.48.93-.25.54.16 1 .3 1.54-.04.52-.34.9-.3 1.13.2.16.35.85.56 1.33.53.63-.03 1.56.17 1.9-.37.25-.4.67-.2.88-.04.46.37 1.03.34 1.62.2.48-.12.9-.08 1.38-.01 2 .33 3.98.8 6.07.2.1-.03.22-.03.32-.02 1.28.1 2.5.52 3.86.17.1-.03.28.03.42.06 1.27.26 2.6.35 3.93.4 2.25.07 4.5-.2 6.76-.07.35.02.53-.04.6-.26.1-.32.4-.4.8-.13.5.3 1 .4 1.73.23.45-.1 1.02-.07 1.52-.04 3.24.23 6.5.3 9.77.4.86.03 1.37-.2 1.48-.5.1-.27 1-.7-.23-.98-.47-.1-.92-.5-.87-.8.05-.27.77-.06 1.16-.17.2-.06.53.01.75-.04.42-.1 1.15-.2 1.22-.06.35.75 1.5.7 2.4.9.03.01.02.07.04.17-.88-.12-1.5.32-2.4.28-.4-.02-1 .2-1 .5.01.33.63.36 1.06.4.63.07 1.23.18 1.7.4.45.2.77.13 1.26.1.88-.07 1.67-.3 2.64-.3 1.34.03 2.68-.05 4.03.05.5.04 1.06-.23 1.5.07.47.3 1.14.33 1.7.32 1.42-.03 2.85-.12 4.25-.26 1.32-.13 2.96.38 3.9-.58.03-.03.2-.02.32-.02.26 0 .6.03.6-.16.02-.2-.36-.2-.6-.27-.8-.2-1.65.07-2.42-.12.3-.46 1.3-.42 1.64-.83.08-.1.33-.05.48.03 1.3.7 2.84.54 4.38.35.46-.06.9-.05 1.25.22.5.4 1.08.35 1.6-.03.2-.14.44-.27.68-.38.5-.23.68-.43-.04-.64-.4-.12-.88-.35-.57-.57.86-.6.01-.82-.65-1.1.54-.13 1.07-.36 1.64-.02.07.04.32.04.4 0 .5-.27 1-.12 1.5 0 .3.08.64.15.88-.05.18-.15.44-.13.53-.03.48.5 1.03.4 1.68.12.2-.1.5-.05.74.01.52.13 1.08.12 1.62.1.7-.03 1.4-.1.8.5-.12.12.06.18.2.24.48.2.96.43 1.62.4.03.1.22.27-.1.3-.85.1-1.72.15-2.57.03-.3-.04-.4-.18-.1-.32.2-.1.6-.22.2-.37-.44-.17-1.03-.3-1.54-.18-.6.14.2.32.1.5-.55.08-1.14.01-1.66.15-.34.1-.34.1-.47-.22.27-.13 1 .02.8-.34-.15-.28-.62-.16-1-.07-.25.06-.58.03-.85.08-.3.06-.37.2-.1.32.43.15.6.35.44.62-.37.12-.68.2-.93-.1-.15-.2-.7-.25-.82-.1-.3.4-.6.86-.05 1.27.38.28 1 .24 1.5.14.26-.05.33-.27.2-.43-.18-.2-.2-.2.1-.3.53 0 1.05.02 1.54.15.04.03.05.06.04.1l.1.03c.7.23 1.24 1.1 2.23.15h.07c.1.65.52.8 1.58.7a.4.4 0 0 1 .19.01c.96.14 1.82-.06 2.7-.2a2.08 2.08 0 0 0 .36-.06c.08-.2.22-.2.52-.1s.83.2.93-.02c.13-.3.7-.77.26-.9-.85-.22-.94-.83-1.84-.95-.75-.1-.7-.36-.6-.7.52.1.8.44 1.4.32.64.1 1.36-.2 1.94.14-.2.24-1.24.24-.62.7.44.4.87.56 1.3 0 .3-.07.46.06.65.14.34.2.76.07 1.15.1.34.17 1.18.01 1.14.22-.12.55.85.73.97 1.16.03.1.3.22.1.33-.18.1-.36.04-.57-.03-.52-.16-.88.14-1.34.18.16.2.24.5.48.56.54.1 1.16.3 1.75.07.56-.2.96-.32 1.6.03.6.34 1.44.2 2.07-.1.54-.26.4-.54-.06-.8 0-.2-.3-.32-.45-.5.03-.22-.3-.3-.53-.42-.7-.35-1.26-.76-1.22-1.33.53.26 1.05-.04 1.58-.01.27.1.57-.1.84.02.22.27.42.53-.44.5-.3-.03-.5.04-.55.2-.04.1.05.2.24.25.45.12.76-.01 1.03-.2.53-.7 1.58-.56 2.58-.5-.26.53-1.66.9-.65 1.6-.2.25-.22.55.27.6.46.06.58-.23.58-.46a6.15 6.15 0 0 0-.16-.38c.9-.06 1.68-.06 1.97.6.12.27.6.4 1.06.12 0-.04.02-.07.05-.1.4.28.68.66 1.5.6.66-.04.54-.4.85-.7.01.42.16.6.82.4.16-.05.46-.12.8 0 .58.2 1.03.04 1.26-.3h1.56c.44.06.4.6 1.14.36.25-.08.54-.14.5-.35-.04-.17-.15-.4-.42-.4-.47.02-.98-.4-1.42.02-.3.01-.68.3-.86.1-.47-.48-1.53-.6-2.07-1.1h2.5c.27-.08.63.08.85-.1l.66-.12c1.06.63 2.23.7 3.5.23.27.07.45-.06.67-.1.02.08.03.17.05.25.1.3.66.57.86.3.38-.56.66-.24 1.1-.1.3.1.74.2 1 .12.96-.25 1.3.14 1.73.47.25.2.4.45.95.43.66.01.5-.27.48-.47-.02-.22-.13-.43-.2-.64h1.14c.13 0 .27.01.4.01.78.26 1.46.01 2.15-.14.27.03.35-.35.72-.1-.04.16.05.33.32.34.9.02 1.42.43 2.1.66.14.12.34.15.55.08.7-.23 1.1-.03 1.47.28l.86.24c.26.22.65.13 1 .14.9.02 1.75-.12 2.62-.2.58-.05.72-.06.46-.36s-.1-.5.68-.6c-.55.32-.63.5.15.52h.98c.05.4.55.63 1.04.4.34-.18.66-.23 1.03-.3.25-.05.46-.17.34-.33-.14-.18-.44-.16-.62-.04-.5.33-1.02-.03-1.5.04-.26-.07-.9.17-.7-.27l.86-.24.95-.01h.15c.5-.02 1.33.2 1.03-.45-.1-.2.4-.08.56-.16.4-.02.8-.06 1.07.16.3.42-.26 1 .74 1.3.06 0 .1.01.15.03.95.08 1.83.66 2.87.12.15-.01.3-.01.44-.02.1 0 .28.02.3-.01.38-.38.83-.74 1-1.18.2-.47.65-.8 1.54-.9.82-.1 1.58.08 2.36.15-.05.13-.2.2-.44.22-.22.02-.6.02-.44.23.12.15.03.4.44.45.3.04.4-.14.53-.25.1-.08.27-.13.4-.2.63-.06.85-.27.67-.6a.41.41 0 0 1 .19-.01c.65.13.55-.3.9-.38.02-.06.05-.12.07-.2.67.2 1.34.4 1.9.68-.56.06-.54.4-.83.6-.18.1.15.17.38.15.1-.01.17-.05.2-.1.16-.12.38-.07.6-.08.24 0 .58.03.64-.14.06-.18-.33-.18-.5-.27-.04-.2.01-.35.43-.37.58.2 1.16.1 1.73-.01.16.06.48.12.32.25-.34.27-.24.6-.52.88h0c.53.28 1.54-.17 1.83.46.54-.63 1.38-.8 2.62-.84-1.2.47-1.2.5-.25.98.56.26.98-.06 1.38-.16.2-.05-.18-.28-.5-.33.02-.14-.13-.3.4-.18.6.12.72-.25.83-.5.08-.17-.2-.2-.4-.16-1.14.2-1.08-.2-1.03-.63.56.18 1.07-.01 1.6-.07.24-.02.38-.13.33-.27-.04-.1-.25-.2-.4-.17-.78.22-1.73-.12-2.45.24-.86-.07-1.32.13-1.2.63.07.3-.18.35-.58.37h0c-.4-.4-.32-1.15-1.8-.86-.06-.02-.12-.05-.18-.07.07-.23-.76-.2-.42-.52.48-.43-.06-.5-.66-.55-.08-.1-.23-.15-.43-.14-.08-.07-.17-.14-.25-.22-.3.01.45-.64-.52-.25-.3.12-.3-.15-.37-.27.2-.17-.07-.25-.2-.36.47-.1 1.08-.4 1.03.25-.01.1.32.14.55.1.95-.07 1.6.5 2.58.38-.02-.08-.03-.16-.02-.23a.21.21 0 0 1 .02.23c.43-.1.78-.32 1.3-.24.5-.2 1.3-.06 1.55-.5l-.03-.23c.02-.05.03-.1.05-.14.54.01.9-.2 1.33-.33.27-.1.55-.06.82-.01.27.16.6.16.9.05.6-.22.73.06.95.25.58.44 1-.05 1.5-.08h.01c-.6.73.5.22.8.36-1-.8.87-.6 1.1-1 .13-.23.3.14.53.13.4.1.76-.01 1.13-.03.52.36-.27.3-.4.33-.4.07-.8.08-.67.4 0 .2.53.4.16.63h0c-.2-.05-.27-.28-.6-.15-.2.08-.13.2-.14.32-.05.4.76.67.6 1.1-.36-.17-.68-.2-1.2-.14-.9.1-.96.53-1.44.78H376l-.46-.15c-.46-.13-.9-.01-1.17.14s-.15.4.33.46c.16.07.35.13.37.27-.32.04-.02.4-.56.34-1.04-.3-1.53.01-1.82.53.53-.02 1.07.08 1.57-.1.68-.1 1.13-.53 1.95-.4h0c.17.06.18.16.18.25-.16.05-.36.1-.3.22.04.08.22.17.42.13.27-.05.55-.2.8-.16 1.43.15.85-.22.48-.55-.02-.23-.95.01-.62-.43.28.04.43.3.8.2.1-.02.22-.08.3-.06 1.12.22 1.82-.05 2.28-.6.14-.16.3-.12.52-.08.06.02.1.02.18.02.1.07.2.13.3.2.03.16.05.3.08.47.35.06.6-.6.87-.06.12.23-.22.48.57.53.64.04 1.1.05 1.37-.33-1.15-.08-1.5-.63-2.03-1.05.47-.54 1.5-.8 2.04-1.3.1-.1.38-.15.22-.3-.2-.17-.47 0-.7-.04h0c-.03-.04-.06-.08-.08-.13.01-.04.02-.07.06-.1 1.2.04 2.03-.48 3.1-.63.77-.1 1.34.3 2.1.24.35.02.17-.3.6-.27.9.1.53-.2.4-.44.42-.25.87.1 1.3-.03.68.04.52.4.7.6.28.43.86.4 1.47.3.33.2.18.48.26.72-.06.12-.38.23-.02.36.32.37.6.8 1.53.37.57.13.32.24-.02.36-.7.32-.25.48.3.62 1.17.1 1.97-.12 2.34-.66.13-.18.2-.45.66-.4 1 .1 1.93-.01 2.9-.12-.12.47.64.2.92.35.12.7.4.8 1.45.58.36.25.9.28 1.4.38.68.08 1.37.23 1.97-.1l.4-.14c.72.05 1.2-.6 2.02-.23.98.35 1.97.14 2.96.02.2-.02.2-.1.15-.2-.05-.08-.2-.2-.27-.15-.56.42-1-.1-1.52-.04-.24-.2-1-.4-.6-.6 1.1-.58-.1-.5-.5-.65-.04-.07-.15-.17-.1-.22.15-.16.32-.3-.13-.37-.4-.05-.62.05-.6.3 0 .1-.04.2-.06.3-.4 0-.8.03-1.2-.02-.83-.1-.93-.35-.3-.68.78-.4.44-.84.16-1.27-.22-.17-.78-.2-.66-.5.1-.12-.01-.32.4-.3.84.04 1-.18.63-.55-.34-.32.08-.43.4-.35.68.17 1.25-.01 1.87-.04l.02.02h.03c.25.35.4.7-.16 1-.15.1-.2.22-.08.34.16.15.4.15.67.13.23-.02.4-.2.7-.06-.1.23-.85.15-.73.45.08.2.38.4.76.38.88-.04.75.3.8.6v.38c-.2.33.42.57.27.92-.08.2.4.17.53.06.35-.3.6-.4 1.1-.06.2.12.92.18 1.13-.1.2-.27-.34-.3-.66-.37-.06-.02-.12-.05-.17-.07.4-.14.04-.25-.04-.37.48-.26 1.3-.33 1.33-.75.85.07.45.5.7.75.33-.07.04-.4.65-.36-.36.46.17.46.75.47.83.02 1.5-.12 1.96-.5.32-.27.73-.35 1.06-.12.4.3.83.35 1.4.24.73-.14.67.32 1.03.46.24.1-.05.33-.4.4-.33.07-.67.16-.35.4.24.17.6.15.87 0 .46-.26 1.26-.4 1.04-.9-.03-.06-.07-.18.15-.2.15-.01.36.04.33.1-.1.24.48.5-.04.72-.14.06-.25.12-.1.17.47.15 1 .1 1.5.05.43-.05.36-.24.3-.44-.08-.2-.24-.6.2-.58.7.01 1.2-.26 1.83-.27.7-.01 1.34.16 1.16.6-.3.72.55.88 1.38 1.1.27-.02.28.24.67.16-.3-.3.13-.46.4-.65 1.07.23 2.13.5 3.16-.06.17-.1.5-.08.6.03.53.7 1.88.67 2.82 1.16-.1-.48-1.1-.7-.5-1.15.22.06.04.66.74.1.5-.4 1.56-.7 2.44-.78 1.07-.08 1-.27.65-.67.9.06 1-.22 1.3-.66.37-.53-.4-.62-.62-.88-.22-.28-.87-.4-1.43-.27-1 .2-1.23-.06-1.23-.54.3-.36.87-.25 1.2-.1.74.34 1.4.62 2.27.15.04-.02.2.02.3.03.43.05 3.18-.1 3.7-.2l.17-.14c-.75-.07-.7-.4-.74-.7-.01-.08-.13-.14-.3-.13-.22 0-.43-.01-.65-.01-.9-.2-1.78-.14-2.64.1-.15.05-.4.03-.36.17s.2.22.47.14c.62-.2.4.03.32.2-.14.04-.3.1-.43.13-.43.14-.75-.06-1.1-.12.07-.34.74-.8-.65-.8-.3 0-.27-.36-.03-.38 1.2-.1.83-.52.7-.9.42-.12.74-.07 1.04.14.3.2.68.25 1-.01.33-.27-.01-.34-.4-.43-.2-.04-.64-.14-.4-.28.57-.32-.37-.44-.18-.74.78.23.74-.07.76-.37s-.3-.4-.7-.48c-.36-.16-.36-.36-.24-.58.46-.08.53.43 1.07.22.5.1 1.1-.1 1.53.17.7.07 1.42.25 2.12.04.04-.01.1-.02.13-.04.07-.01.14-.01.2-.02.16 1.16 1.2.1 1.8.2.34.06.5-.16.57-.36.08-.26-.28-.27-.56-.37-.26-.1-.77.07-.86-.26.94.07 1.82.12 2.7-.05.53-.1 1.03 0 1.47.18.2.05.38.1.58.14l3.1-.85c.3-.1.4-.25.03-.38-.27-.1-.53-.22-.6-.4.67-.3.9-.05 1.15.2 0 .03.02.06.07.08.54.3.48.54-.18.74-.27.08-.46.22-.32.4.1.13.32.17.55.14.93-.1 1.87-.13 2.8-.28.42-.07.42-.24.54-.4.2-.28-.25-.16-.4-.23-.28-.1-.3-.1.26-.28.37-.05.33-.45.9-.34l.06-.02c.01.47.4.74 1.28.73.64-.22 1.35-.05 2-.1-.01.04-.01.07-.01.1-.63.14-1.05.38-1.23.8.57-.15 1.12-.18 1.68-.16.36.2.85.36 1.25.16.56-.27 1.15-.3 1.8-.3.5.01.67-.13.42-.4.3-.1.78-.1.9-.35 1.33.16 2.16-.43 3.2-.7.26-.07.46-.18.77-.17.18-.38.58-.8 1.28-.66.94.18.84-.12.93-.4.04-.12.06-.24.14-.35.06-.08.53-.08.23-.24-.2-.1-.5-.36-.66-.26-.72.42-1.56.1-2.33.16-1.68.16-3.33-.3-5.04-.25-.3.01-.9-.16-.74-.34.38-.44-.4-.48-.5-.38-.5.43-.6-.48-1.02-.06-.27.28-.43-.07-.66-.07h0v-.63c.82-.3 1.6.22 2.42.03 4.58.13 9.07-.24 13.55-.7 1.13-.12 2.32-.13 3.4-.43.9.05 1.85.03 2.7.18.68.12 1.26.3 1.96.1.47-.07.5-.1.44-.28-.36-.35-.5-.7-.24-1.1.42-.08.92-.06 1.23-.38-1.47-.17-2.6-.76-4.22-.65-1.03.07-2.23-.03-2.64-.78-.1-.2-.4-.2-.7-.24-.83-.12-1.68-.1-2.5-.01-1.92.2-3.87.15-5.8.2-.52.01-1.12.06-1.65-.13.45-.34 1.24-.3 1.7-.62-.6-.2-1.2-.22-1.82-.22-1.27 0-2.55.17-3.82-.01-.7-.2-1.5-.14-2.22-.24-.28-.2-.67-.12-1-.12-.4 0-.43-.1-.32-.26h0c.42.02.88-.01 1.26.07.6.12.76-.08.95-.3h0c.56.05.8-.42 1.3-.3.7.15 1-.07 1.34-.3.08.04.18.1.25.1 1-.07 1.94-.28 2.97-.26.4.01.15-.2.1-.33h0c1.92.03 3.92.32 5.5-.62 1.08-.1 2.18-.14 3-.62.26-.15.6-.12.93-.1.04.01.08.01.12.01.28.03.56.01.83-.03 1.36-.12 3.52-.54 3.88-.8.06-.04.02-.12.03-.18.3-.16.7-.08 1.05-.12 1.54-.16 3.02-.4 4.4-.84.18-.06.43-.1.27-.3a18.19 18.19 0 0 0-4.66.35c-3.85.82-7.95 1.04-11.86 1.7-1.62.28-3.38.45-5.1.57-2.15.15-4.18.62-6.43.56-1.34-.03-2.72.35-4.07.55-1.3.17-2.66.17-3.98.32-1.92.22-3.94.54-5.85-.06a12.1 12.1 0 0 0-4.17-.53c-.4-.18-.87-.17-1.32-.24-1.93-.28-3.8.23-5.73.16-1.66-.06-3.33.1-4.95.33-.13 0-.26.01-.4.01-.4-.04-.8-.14-1.17-.1-1.38.13-2.76.3-4.13.45-2.3.05-4.58-.25-6.9-.1.45-.18.94-.03 1.5-.23-1.48.1-2.8 0-4.03-.25-.96-.2-1.9-.26-2.87-.27l-.03-.1c.03-.14-.48-.26-.2-.34.46-.13.92-.44 1.54-.18.48.04.96.02 1.24-.23.14-.12-.07-.22-.28-.28-.42-.13-.76-.1-1 .15-.15.03-.3.12-.47.03-.16-.1 0-.18.04-.27.06-.13-.01-.38.3-.33 1.1.18 2.16-.07 3.24-.06l1.26-.01c.37-.46-.27-.8-.4-1.2.3-.05.58-.06.86-.18.32-.13.78-.27 1.12.03.28.32 1.24.6.07.98-.22.07-.1.26-.08.4.8.05.07.48.47.63-.01.04-.01.08-.02.12l-.01-.01-.87-.16c0 .3.02.54.65.53.36.01.72.22 1.07-.01.82.18 1.6.27 2.35-.12.23-.12.47-.16.76 0 .7.4 1.63.24 2.48.24.3 0 .62-.08.58-.3-.05-.27-.4-.1-.66-.13-.83-.07-1.72-.14-1.73-.8-.26.14-.53.22-.8.27a3.01 3.01 0 0 0 .8-.27c-.03-.32-.28-.5-.9-.4-.5.12-.9-.07-1.35-.12-.76-.1-.9-.4-.33-.7.23-.12.62-.2.5-.42-.2-.4.23-.67.78-.66 1.1.03 2.1-.67 3.22-.1-.13.22-.94 0-.8.35.13.3.68.1 1.02.18.2.13-.06.27 0 .4.13.24.52.3.7.1.16-.18.52-.4.24-.66l-.84-.35c.4-.27.4-.27-.73-.68.2-.18.65-.3.44-.56.62-.3.28.33.7.22.16.62.93.6 1.76.53-.22.25-.03.4.42.4.68.01.86.3 1.1.55.01.13-.58.22-.1.38.56.18.84.48 1.15.77.1.1.24.24.35.16.52-.37 1.43-.23 1.93-.46s.82-.28 1.33-.1c.23.12.42.27.8.24.66.08 1.6-.03 1.42.64-.02.1.1.16.25.17.24.02.34-.1.34-.2.01-.3.46-.22.72-.3 1.1-.4 2.1-.22 3.14-.04.1.01.23-.08.34-.12.65-.23 1.14.26 1.76.12.4.1.68-.15 1.15-.15-.14.36-.98.5-.7.9l-.07.03-.1-.01c-.26.01-.66-.22-.72.14-.06.38.8.94 1.47.96.48.02.66-.07.63-.34-.06-.5-.83-1.05.4-1.44.16-.05-.3-.18-.05-.3.95.63 1.2.64 2.7.3.7-.16 1.32-.04 1.64.44h-1.67c.43.13.9.2.77.45-.4.78.88.74 1.54 1.04-.23-.3.12-.54.02-.8v-.32c-.16-.4.22-.47.77-.46.13.22-.5.2-.3.42 2.13-.18 2.13-.18 2.23-.43-.45-.12-.75.24-1.25.12l.85-.74c.27.35 1 .63 1.23.5.54-.33 1.9-.06 1.8-.8.16-.36-.6-.45-.7-.74-.01-.04-.32-.13-.2-.13.62-.02.83-.47 1.62-.38.83.1 1.78.36 2.58-.1l.72-.1c.17-.03.36-.12.3-.2-.1-.13-.37-.07-.57-.07.17-.58.17-.58-.45-.63-.46-.34-1.28.02-1.75-.3-.27-.42-1.06-.44-1.6-.64-.67-.24-.7-.38.04-.54.06.3.48.4.9.46.34.05.68-.05.8-.23.1-.14.14-.37.01-.47-.14-.1-.53-.23-.8-.02-.07 0-.15-.01-.22-.01.05-.2.12-.37.6-.32.15.02.47.1.33-.07-.43-.5.3-.46.75-.62.56-.2 1.25-.4 1.4-.83h.43c.26.27.88-.03 1.14.23-.1.3.13.5.63.35.36-.1.85-.1 1.1-.34.08-.16.13-.3-.02-.47-.08-.16-.07-.26.3-.25.35.01.7-.01 1.04-.02.14.02.27.06.4.06.78.03 1.5.6 2.25.26.67-.3 1.45-.48 2.17-.6.52-.1.17-.58.84-.42.35.3-.5.37-.35.63-.68.37.24.3.38.45.4.01.8-.02 1.2.03.7.08 1.27-.1 1.86-.2.96-.2.27-.58.27-.9 0-.06-.03-.17.2-.2.28.2.3.56.97.5.27.06.53.23.82.02l1.54.13c.06.26-.24.63.62.63.12.1.3.1.47.1.95.44 1.4.1 1.78-.35l.86-.14c1.85-.05 3.22-.5 3.56-1.18.6.13 1.1.37 1.5.66.36-.2.17-.36.04-.53-.17-.22.03-.3.45-.3.73-.01 1.65.06 1.5-.62-.06-.3.56-.2.73-.4-.42-.2-.74-.5-1.4-.2-.28.12-.54.12-.7-.1-.08-.1-.26-.2-.37-.06-.3.4-.93.27-1.33.2a82.15 82.15 0 0 0-4.25-.54c-.2-.02-.52 0-.55-.22-.08-.5-.1-.5-.97-.2-.1.01-.18.01-.26.01-.07-.01-.15-.03-.22-.04-.4-.1-.7-.4-1.16-.34-.27.04-.53.03-.76-.01l-.54-.12c-.33-.1-.6-.25-.8-.35-.87-.5-1.93-.43-2.87-.64-.62-.01-1.18-.12-1.73-.3-.7-.23-1.47-.27-2.24-.07l-.9.15-2.56-.3c.56-.48-.3-.47-.68-.62-.06-.28.5-.2.65-.35l.67-.25c.7.01 1.08-.28 1.53-.5 1.26.04 1.9-.36 2.2-1 .8-.2.77-.82 1.62-1 .1-.03-.06-.24-.2-.24-.9-.04-1.37-.62-2.32-.58-.1-.07-.44-.07-.34-.2.38-.44.06-.66-.67-.8-.18-.03-.3-.16-.45-.26l1.45-.4c.55-.1 1.3-.1 1.5-.42.23-.4.63-.25 1-.23.24.02.42.12.7.1 1.8-.13 3.65-.04 5.4-.4.06.22-.47.23-.5.56.25-.26.7.13.83-.26.05-.14.34-.18.63-.17 1 .03 2-.01 2.88-.35.44-.16 1.23-.4 1.47-.22.6.5 1.1.2 1.65.07.25-.06.46-.1.64.07.1.1.3.13.43.01.12-.1.03-.2-.17-.24-.5-.1-.62-.32-.57-.58.44-.06.7-.27 1.06-.4.68-.1 1.44-.07 2-.38l.2-.12c.5.01.72-.48 1.35-.24.65-.06 1.3-.63 1.97-.01a.17.17 0 0 0 .1 0c.5-.26.77-.02 1.15.13.96.4 2.06.1 2.32-.56.1-.27.03-.57.4-.8.9-.3 1.05-.66.3-.8zm-33.68-13.06c.02.01.04.01.07.02-.02.01-.05.01-.07.02-.01-.01 0-.02 0-.04zm2.96-37.86s.05.03.06.03l-.06-.03zm-3.67.75c-.01.01-.01.01-.02.01.01-.01.01-.01.02-.01zm-1.54 36.12c.01.01.02.01.04.02-.02.01-.05.02-.08.02l.04-.04zM450.52 19.2zm-2.42-.6zm-.2 38.15c.01 0 .01.01.02.01-.02 0-.03 0-.05.01.01-.01.02-.02.03-.02zm-1.82-37.35h-.04.04zm8.2-5c-.01 0-.03 0-.04.01.01-.01.02-.01.04-.01zm-2.7-.4a.09.09 0 0 1 .05.01c.01 0 .01 0 .02-.01 0 .01-.01.01-.02.01-.02.01-.03.02-.05.02-.01-.01-.01-.02 0-.03zm-19.05 1.43c.04.02.08.03.13.04-.1.05-.17.12-.33.1.07-.04.18-.08.2-.15zm-4.24.8l-.01.03c.01-.01.01-.02.01-.03zm-6.6-1.5s-.02 0-.03-.01c.01 0 .02 0 .03.01zm-24.6-2.08c-.02-.01-.02-.02-.02-.03.01.01.01.02.02.03zm-3.32-.04h-.15c0-.01-.01-.02-.01-.03.05.02.1.02.16.03zm-16.6-.03c.03-.01.05-.03.08-.04.01.01.02.03.04.04h-.12zm-2.3.2c-.01.01-.02.02-.02.03-.01-.01-.03-.01-.04-.02.02 0 .04 0 .06-.01zm-2.4 1.03c-.01 0-.01 0-.02.01 0-.02.01-.02.02-.01zM22.82 35.97c.03-.01.06 0 .1 0-.03-.01-.06 0-.1 0zm2.96-.05c-.06-.01-.1-.02-.17-.02-.02-.01-.04-.01-.05-.02.07.01.15.02.22.04zm10.35 4.9c.02.01.04.03.06.05-.02-.02-.04-.04-.06-.05zm30.95-10.8zM82 31.26c.01 0 .01-.01.02-.01.02.01.04.01.06.02-.03 0-.06-.01-.08-.01zm2.45-6.05c.01.01.02.02.02.03-.01 0-.02-.01-.03-.01 0-.01.01-.01.01-.02zm.01 17.9c.02 0 .02.01.02.01 0-.01-.01-.01-.02-.01zm1.32.4zm1.24-14.7c-.01-.02-.02-.03-.04-.04.04-.01.08-.01.12-.02-.03.02-.05.04-.08.06zm3.36-3.87c-.01-.01-.03-.02-.04-.03.01 0 .01.01.02.01 0 .01.01.01.02.02zm3.4 4.35c.01-.01.02-.01.03-.01 0 .01.01.01.01.02-.02-.01-.03-.01-.04-.01zM45.15 51.2zm11.76 9.48c.05 0 .1 0 .16-.01-.03.04-.07.06-.16.01zm-37.98 8.15zm6.3.84c.01 0 .03-.01.05-.01-.02 0-.03 0-.05.01zm12.72 2.98c-.06 0-.1-.01-.17-.01-.27-.04-.55-.04-.82.01-.04.01-.07.03-.1.04-.15-.06-.34-.07-.38 0-.26.4-.62.1-.94.1-.08 0-.15 0-.22.01-.04-.02-.07-.04-.1-.06.16-.16.7-.12.57-.37a.54.54 0 0 1-.04-.12c.05-.02.1-.03.15-.05.07-.03.24.07.37.1.4.06.8.13 1.2.15.18 0 .36.01.55.01.16.03.32.06.43.14-.16.01-.33.01-.48.05zm-4.7 33.08h0zM50.18 62.6l.05-.05c0 .01.01.03.03.05h-.08zm13.12-2.1v-.02c.01.01.01.01 0 .02zm2.94.63zm1.32 45.33c-.01-.01-.02-.01-.03-.01.01-.01.03-.01.04-.02 0 .01 0 .02-.01.03zm2.24-45.6h.1c.02 0 .03.01.05.01-.05-.01-.1-.01-.14-.01zm10.72-13.4c.01-.01.03-.02.05-.04-.02.01-.03.03-.05.04zm20.77-25c.06-.02.12-.05.17-.07.18-.1.4-.08.6.01l-.77.06zm150.05-7.66c-.02.01-.04.02-.07.03v-.06c.03 0 .05.01.07.03zm-1.1.34zm-.3 3.08a.51.51 0 0 0 .07.17c-.1-.06-.14-.12-.07-.17zm60.2-1.96c-.01.1.04.17.14.24-.46-.01-.82-.15-1.16-.32.33.07.67.12 1.02.08zm-32.63-1.4c.02-.01.03-.02.05-.03.02.01.05.02.07.04-.04 0-.08-.01-.12-.01zm-.65-1.82c.02 0 .03.01.05.01-.03 0-.05.01-.08.02l.03-.03zm-4.07 1.6c.82 0 1.72.2 2.4-.22h.24c-.24.3-.5.58-.42.9H275l-1.6.02c-.06.02-.1.03-.16.04.2-.25.1-.4-.57-.37-.03-.02-.07-.04-.1-.06.06-.01.1-.02.17-.04-.02-.18-.15-.27-.33-.32a2.71 2.71 0 0 0 .4.04zm-1.46 1.86c.1.02.1.04.06.06-.07-.03-.15-.05-.23-.07.05-.01.1 0 .17.01zm-8.5 1.25c.17-.06.33-.12.53-.14.38.01.76.04 1.1-.06.25-.07.65-.13.62-.3-.04-.24-.44-.13-.7-.13h-.8c-.04-.01-.1-.02-.13-.03-.1-.02-.2-.04-.3-.08-.43-.17-1.1-.17-1.26-.53.55-.08 1.1-.14 1.7-.1.87.15 1.72.4 2.68.25h-.02a.53.53 0 0 0 .28.01c.01-.01.03-.02.04-.02 1.04-.02 2.05-.18 3.08-.2 0 .01-.01.03-.01.04.46.74.94.9 1.95.6.01-.01.01-.01.01-.02.1 0 .2.01.3.01.8.48 1.8.12 2.7.22-.13.13-.42.1-.63.15h-.17c-.82.24-.82.6-.4 1.1-1.63-.24-3.18.06-4.66-.35-.63-.17-1.45-.2-2.16-.1-1.76.23-3.47.23-5.26-.2.6.05 1.08.1 1.52-.06zm-5.62-2.63c.48.05.97.07 1.48.03.52-.03.98-.17 1.44-.3.07-.01.12-.04.18-.06.1 0 .16.02.1.13-.16.24-.18.5-.18.77.01.02.02.04.04.06-.16.08-.33.13-.5.16-.17.02-.34.05-.5.07-.3.03-.62.04-.92.08a13.26 13.26 0 0 1-.64.02h-.58c-.05-.13-.01-.27-.17-.4-.38-.32-.25-.5.28-.56zm41.2 100.9zm.02.01zm7.15-98.47c-1.02-.23-2.23-.26-3.25.2-.4.17-.8.13-1.2-.03-.7-.28-1.43-.3-2.15-.03-.4.15-.8.2-1.24.06a3.77 3.77 0 0 0-1.39-.1c-.45.05-.86 0-1.25-.15-.7-.28-1.45-.5-2.33-.22-.14.04-.26.02-.4-.02-1.3-.34-1.36-.33-1.77.42-.1.02-.2.04-.3.05-.05-.08-.05-.2-.02-.3.04-.16.2-.43-.17-.48-.5-.07-.7.23-.77.42-.08.23-.17.36-.28.42-.16-.02-.3-.06-.46-.12-.08-.06-.17-.13-.26-.22-.18-.17-.46-.27-.83-.23-.3.04-.37.17-.38.33-.02.14-.07.24-.14.3a.49.49 0 0 1-.4.06 1.96 1.96 0 0 0-.48-.1l-.12-.06c-.5-.3-.63-.26-.8.1a.95.95 0 0 1-.1.17l-.5.3c-.4.12-.84.1-1.26.03-.93-.17-1.8-.44-2.6-.75a5.05 5.05 0 0 0-.2-.06c-.2-.1-.44-.14-.7-.16a2.83 2.83 0 0 0-.41-.03h-.28c-.48-.01-.97 0-1.45.02l-1.34.02c-.57-.01-1.13-.04-1.7-.15.1-.08.18-.16.26-.24-.3-.5-.92-.45-1.6-.27l-.74.02c.78-.37 1.6-.5 2.52-.12-.05-.7.76-.68 1.62-.64.22.01.44 0 .56-.14.2-.12.4-.12.65-.06-.12.33.5.3.7.46-.23.26-.56.55.42.48.76-.24 1.5-.23 2.28-.1.15.05.3.08.5.1.03.01.06.01.08.02.43.1.94-.01 1.38-.13l.24-.06.56-.06c.05.01.1.01.14.03a2.05 2.05 0 0 0 1.4-.07h.26c.3.2.7.26 1.16.27 1.66.04 3.2-.07 4.3-1 .23.57.88.73 1.53.85.66.13 1.84-.06 1.88-.3.06-.42-.5-.6-1.07-.77-.08-.02-.14-.02-.14-.04 1.17.07 2.33.1 3.5-.02.58-.05 1.2-.12 1.72.07.72.25 1.3.2 2-.07 1.2-.45 2.46-.3 3.2.25.07.06.13.13.2.2.02.16.2.27.5.3.6.08 1.17-.14 1.38-.37.4-.45.98-.3 1.37-.16.22.08.43.13.65.15.14.04.28.07.45.07.1 0 .2.02.32.04l.2.03c0 .05 0 .1-.01.14l-1.8.25c-.35.04-.53.17-.54.33-.01.22.34.15.58.16.02-.1-.03-.2.2-.25a.51.51 0 0 0-.19.25c.43.13.82.3 1.37.28.14.01.25.04.06.18-.96.45-1.9.53-3.1.26zm26.8 101.2c.1-.03.2-.07.25-.13-.02.07-.1.12-.25.13zm9.24.96c-.01.01-.02.03-.03.04.01-.02.02-.03.03-.04zm-.04.04c-.13.17.06.33.18.55-.25-.2-.32-.37-.18-.55zm6.1-106.33c-.01 0-.02-.01-.02-.01.01-.01.02-.01.03-.02 0 .01-.01.02-.01.03zm4.35 105a.52.52 0 0 1 .07.23c-.16-.06-.15-.14-.07-.23zM353 13.78h.06v.04c-.02-.01-.04-.03-.06-.04zm1.47 106.1zm4.5-2.12c0-.01-.01-.02-.01-.03l.1.03h-.08zm.88-2.27c.01-.01.03-.01.04-.02.02.02.04.04.06.05-.04 0-.07-.02-.1-.03zm.98.03c0-.02.01-.03.02-.05l.04.04c-.02.01-.04.01-.06.01zm2.14 1.07c.1-.02.16-.05.18-.1l.16-.03c-.04.1-.1.18-.34.13zm9.9-1.5zm4.14-2.16zm.63 1.58zm.02-.01zm110.43-13.66c-.05 0-.1 0-.14.01.03.05-.04.01-.02-.03.06.01.1.01.16.02zm-16.56.97c-.4.08-.83.07-1.26.05l1.26-.05zm-11.96 3.78zm-3.97.6c.04.05.1.08.2.1h-.08c-.37.18-.74.35-1.24.16.2-.3.73-.18 1.1-.26zm-1.58-1zm-4.18-.37zm-7.46 5.07zm-.03.01zm-.23.33c-.01.02-.02.02-.03.02.01-.01.02-.01.03-.02zm-1.1-2.83c0 .01-.02.01-.03 0h.03zm-3.1-1.83c-.01.01-.02 0-.03 0 .02.01.02 0 .03 0zm-.45 8.32c.54-.06.78-.25.92-.5.06.01.12 0 .17-.01.01.01.01.02.02.03.94.01 1.34.9 2.54.47-.27.22-.48.4.1.54h.03c.1.1.16.27-.08.25-.74-.05-.56.22-.6.42-.01 0-.02.01-.03.01-.04.05-.04.1-.01.14-.2.16-.06.28.2.38.03.01.05.02.08 0 .1-.06.01.1-.08.02-.37-.14-.68-.32-1.06-.45.2-.54.14-.67-.64-.7-.5-.06-.97-.01-1.44-.07l-.33-.07-.3-.06c-.2-.17-.23-.33.5-.4zm-.8 1.3c0 .01.01.01.01.02h-.02c-.2.13-.2.34-.46.45-.1-.25-.07-.45.47-.47zm-1.2-11.33c.01 0 .03 0 .04.01h-.03zm-3.7.08zm-3.08 6.6c-.04 0-.07 0-.1.01-.01-.03-.02-.05-.02-.08.04.03.1.05.12.07zm-.4-14.86c-.03 0-.06-.01-.1-.01.03 0 .06 0 .1.01zm-.33 16.7c-.1-.01-.16-.03-.16-.08.05.02.1.05.16.08zm-1.9-16.15h0zm.06-.17c.04.04.04.1-.04.17-.01.01-.01.01-.02.01h0-.1c.04-.07.1-.13.15-.18zm-1.14 9.85zm-1.96 7.67l-.77-.12c.28.01.55.03.77.12zm-2.26-18.22c-.03.01-.05.02-.08.02 0-.01-.01-.02-.02-.02h.1zm-1.62-.48c-.01-.01-.02-.01-.04-.02-.03-.07.1-.01.04.02zm43.4-4.96l-.02-.02a.54.54 0 0 1 .18 0c-.05.01-.1.01-.16.02zm0-.64c-.08-.01-.16-.02-.24-.01 0-.1-.01-.16-.02-.17.03.05.12.12.26.18zm-40-30.7l.02-.02c.13.07.28.07.42.06-.2.07-.4.16-.6 0 .05-.01.1-.02.17-.04zm-12.94-41.1c.74-.06 1.33-.38 2.06-.4 1.58-.02 3.12-.17 4.65-.35.48-.06.78.01.86.3-.57.02-.95.17-.94.54.01.28-.25.36-.7.32-.36-.03-.73.02-1.1.01-.44-.01-.95.07-.88-.38.04-.24-.42-.3-.8-.3-.44.02-.85.1-1.28.15-.33.04-.65.12-.7.33-.07.26.37.26.64.35-.35.1-.8.1-1.1.26-.04 0-.07 0-.1-.01-.05-.14-.36-.13-.53-.2-.42-.17-.48-.58-.08-.62zm-.93-1.68h.04l-.06.03c.01 0 .02-.01.02-.03zm.9 41.26c.1.17.5.17.73.26.2.07.53.06.34.3-.26.3.02.53.35.74a1.4 1.4 0 0 1-.28.06l-1.22-.16c-.24-.05-.5-.08-.75-.06-2.57.15-5.08-.17-7.6-.3-.14-.01-.28-.01-.43-.01-.02-.03-.02-.06.04-.12.14-.15.37-.25.72-.14.25.08.64.14.7-.07.06-.2-.26-.32-.64-.33-.16 0-.35.08-.5-.08l.92-.08c.1 0 .18-.01.26-.01 2.46-.1 4.9-.13 7.37 0zm-28 59.92c0 .02-.01.04-.01.06.02.02.05.03.07.04-.02 0-.04-.01-.06-.02-.3-.03-.4.1-.48.2-.2-.2-.47-.22-.82-.08-.28-.07-.4.15-.66.16.05-.2.53-.4-.04-.56-.07-.02-.16.02-.2-.03.14 0 .3.01.43-.02.03-.02.05-.03.07-.05l2.03.03c.25.16-.3.14-.32.26zm-.92-1.62c.01-.01.02-.01.03-.02-.01.01-.01.02-.02.03zm5.5-1.18c.03-.05.08-.08.2-.1-.07.03-.13.06-.2.1zm4.64-57.45zm2.4-37.78c-1.56-.05-3.12-.1-4.55.37-.26.1-.56.06-.86.04l-.8-.1a4.88 4.88 0 0 0-1.28-.15 4.82 4.82 0 0 0-1.13.06c-.1.03-.2.06-.3.1a5.96 5.96 0 0 1-.5.12h-.64l.2-.22c.01-.01.02-.02.02-.03 1.1-.42 2.4-.45 3.67-.58-1.02.1-1.96-.25-2.9-.17-.76.06-1.5.01-2.22-.05-.17-.06-.4-.1-.68-.1-.1 0-.22.01-.34.02a11.72 11.72 0 0 0-.83-.03c.17-.3.8-.15 1.1-.33.42.16.92.17 1.4.18 1.74.04 3.42-.2 5.08-.44 1.6-.24 3.3-.34 4.9-.22 1.3.1 2.42-.1 3.6-.26h.1c.08.35.2.4.88.33.75-.1 1.5-.1 2.27-.16 1.92-.13 3.86.03 5.77-.18.76-.08 1.52.05 2.26.16.48.07.55.3.54.54-.01.23-.22.35-.62.34-1.8-.06-3.5.44-5.3.32-.35-.02-.73.02-1.06.12-.02.01-.03.02-.04.03-.25-.02-.5.01-.74.04a36.04 36.04 0 0 1-1.47.03c-.32-.04-.6-.14-.85-.34.1-.12.3-.24.04-.37-.3-.16-.6-.05-.87.03h-1.2c-.25 0-.58-.01-.56.2s.35.16.6.18c.4.03.88-.1 1.2.17-.2.1-.53.08-.74.16h-.12c-1 .07-1.98.26-3 .23zm2.7 97.4h0zm-.05-.2c-.3-.13-.66-.1-1-.12a2.32 2.32 0 0 1-.45-.13c-.06-.01-.1-.01-.17 0 .03-.03.04-.06.03-.1.03-.03.07-.06.1-.1.6.05.66-.3.93-.5.3.07.6-.7.9 0 .01.06.01.13.02.2-.3.2-.12.5-.34.74zm9.73 1.4a.44.44 0 0 0-.28-.03c-.67-.2-1.5-.15-2.1-.4-.02 0-.04 0-.06.01.4-.15.68-.3.13-.57-.04.02-.07.04-.1.05.01-.01.01-.02.02-.03l-.02.01c.13-.2-.37-.25-.3-.43.04-.1.23-.24-.08-.3-.25-.05-.4.06-.52.16-.2.15-.4.28-.6.42a6.32 6.32 0 0 0-.27.2l-.04-.04c-.7-.42-1.6-.38-2.5-.32-.02.04-.04.07-.05.1 0-.01-.01-.02-.01-.03-.54-.02-.82.14-.97.4-.47.01-1.06.5-1.4-.1-.02-.04-.04-.08-.06-.13.2-.2.44-.37.9-.43.32-.28.14-.72.9-.86.36-.17.68-.37.9-.6.16-.04.32-.1.5-.1 1.05-.1 1.22-.28.84-.9-.27-.18-.62-.24-1.04-.24-.54 0-1.08.15-1.62.01-.08-.15-.64-.23-.3-.43.26-.15.44.12.7.14.1.01.2 0 .3.01.32.01.65.05.96.03.34-.03.86-.1.82-.3-.06-.37-.55-.05-.84-.1-.17-.02-.36.01-.54.02-.17-.17-.53-.05-.8-.2-.45-.26-.92-.1-1.23.2h-.36c-.02-.27.02-.52.3-.7.17-.02.34-.03.53-.02 1.7.32 3.4.22 5.07-.08.27-.1.58-.15.9-.2.01 0 .03 0 .04-.01.12.02.23.07.3.2.24.35.57.24.9.07.2-.1.37-.26.7-.27.5.4.18.85.2 1.27-.02.03-.04.06-.05.1-.04 0-.08 0-.12.01-.95-.6-1.4.17-2.07.26-.22.03-.6.15-.44.36.13.18.47.32.8.24.56-.12 1.08-.02 1.6.02-.07.2-.4.52.46.43.01 0 .01-.01.02-.01-.06.1-.14.2-.24.3-.12.02-.3.01-.55-.03-.68-.1-.35-.52-.83-.55-.74-.03-.04.63-.86.62a.66.66 0 0 0-.28.09c-.27.18-.13.4-.05.58.1.22.4.07.62.03.73-.1 1.3 0 1.76.36.4.3-.27.4-.38.57-.06.04-.1.08-.1.13l.02.02c-.24.12-.77.01-.82.3.02.01.04.01.06.02.17.12-.42.67.57.34.32.26.76.13 1.16.13a.3.3 0 0 1 .08.04c-.12.06-.2.13-.13.23zm-1.4-8.72c.02.01.04.01.06.02-.02 0-.04.01-.06.01.01 0 .01-.01 0-.03zm.6.4zm1.28-1.33c.01-.01.02-.01.02 0zm.7 5.28c0-.01.01-.02.01-.03.01.01.02.02.02.03h-.03zm.37-3.17h0c.01-.02.03-.03.05-.04-.02.02-.03.03-.05.04zm.62.74c0-.01.01-.02.01-.02.01.01.02.01.02.02h-.03zm6.16-15.57a.98.98 0 0 1-.25-.01c.08 0 .16.01.25.01zm.46 15.5l-.1-.06c.06.01.1.03.13.06h-.04zm1.98-14.63l-.02-.02h.05c-.01.01-.02.02-.03.02zm.87 13.77c.01-.01.01-.02.01-.03.01.01.01.02.02.03h-.03zm.03 3.5zm.35.53c.03-.01.07-.02.1-.02-.03.01-.07.02-.1.02zm3.9-21.14c.02-.01.03 0 .04 0h-.04zm4.53-1.2h.03c.01 0 .02 0 .03.01-.02-.01-.04-.01-.06-.01zm.33 1.74l-.03-.06c.01.01.03.01.04.02-.01.02-.01.03-.01.04zm12.26-3.8c-.01-.02-.03-.03-.04-.05h.06c-.01.02-.02.03-.02.05zm2.68.3c.06-.12.17-.17.3-.18a1.57 1.57 0 0 1-.31.18zm.6-2.33c.01-.01.03-.01.04-.02.01.01.03.02.04.04a.31.31 0 0 1-.08-.02zm2.17-25.5l-.3-.03h-.03c-1-.27-3.34-.2-4.4.12-.83.1-1.66-.2-2.5-.02-.03 0-.06 0-.08.01a5.4 5.4 0 0 0-.43-.11c-.98-.24-2.2.02-3.06-.34-1.1-.45-2.27-.35-3.45-.27-.95.06-1.87.13-2.74-.17-.43-.15-.9-.1-1.37-.02-.8.15-1.3.48-1.72.87-.67.1-1.15 0-1.5-.26-.01-.02-.02-.03-.03-.05-.16-.32-.6-.56-.84-.85-.86-.1-1.7-.35-2.62-.17-.64-.2-1.2-.1-1.77.12h-.2c-.05-.03-.1-.05-.14-.08-.64-.3-1.48-.26-2.2-.4-.1-.02-.2-.05-.32-.07-.83-.16-1.66-.16-2.47.02-.54.1-1.06.08-1.6.05-1.5-.08-3-.3-4.48-.17-1.06.1-2.03.38-2.9-.2 0 0-.04-.02-.1-.01-1.42.1-2.73-.27-4.1-.28-1.32-.01-2.6-.2-3.93-.16-.24.01-.52 0-.66-.2.52-.2 1.1-.18 1.67-.14 1.52.1 3 .3 4.56.3 1.65.02 3.3.32 4.9.27 1.62-.05 3.18.03 4.78.1l12.76.64c.85-.05 1.7-.18 2.54-.02l.42.03c.18.03.36.04.54.06.2.03.43.02.66.01l.94.06.2.06c.46.2.95.3 1.5.13.1-.04.23-.07.34-.1l.94.04c.1.02.18.03.27.05 1.02.22 2.08.15 3.13.18 1.2.03 2.43.01 3.54.27.64.15 1.23.24 1.9.16.8-.1 1.6-.07 2.4.02 2.02.22 4.03.55 6.12.22.17-.03.36.01.54.04.23.07.45.13.7.17-.14.01-.3.02-.4 0a1.58 1.58 0 0 0-.32-.03c-1.08-.08-.85.66-1.56.8-.88-.73-1.88-.94-3.1-.66zm15.24 23.13c-.37.27.08.6-.2.88-.22.08-.43.16-.65.23-.02-.01-.05-.02-.08-.03-.5.13-.97.25-1.54.12a1.55 1.55 0 0 0-1.09.15c-1.1-.14-1.75.48-2.73.52-.45-.2-.87-.1-1.3.02-.13.04-.15.08-.13.13-.01-.01-.03-.02-.04-.03l-.05.02-.05-.02c-.03-.03-.06-.06-.13-.08-.4-.12-.9-.03-1.25-.17-.73-.28-1.48-.36-2.33-.23-.26.04-.5.01-.6-.14.02 0 .04 0 .06-.01.18-.05.3-.1.38-.2.05 0 .1-.01.15-.01.6-.03 1.33.05 1.64-.3.3-.34.77-.4 1.3-.47-.02.02-.04.05-.07.06-.26.15-.4.3-.12.48.13.08.35.08.5.02.25-.1.55-.25.27-.46-.1-.07-.1-.12-.1-.17.13-.02.26-.03.4-.03.5-.1 1.3-.06.87-.6-.02-.01-.05-.02-.07-.02.2-.08.57-.07.57-.26.02-.01.05-.02.06-.04.3 0 .58.03.84.12-.6.5-.07.64.7.76.7.1 1.38.26 2.1.1.6.17.6-.07.73-.3.18-.34.4-.7 1.28-.55.22.05.52-.03.7.12a4.59 4.59 0 0 1-.02.38zm-3-20.8c-.03-.04.03-.02.05 0h-.05zm2.94-1.04c.01 0 .02 0 .03.01-.02 0-.02 0-.03-.01zm1.33 25.87c.08-.15.18-.3.23-.45-.01.16-.02.3.1.45-.1-.02-.22-.02-.33 0zm1.4.3c-.01 0-.01.01-.02.01-.1.13-.05.22.1.3-.23-.04-.4-.13-.58-.22.13-.06.16-.12.07-.2.2-.03.34 0 .43.1zm3.33-4.68l-.48.17.8.43c.02 0 .03.01.04.01-.16.23-.66-.1-.82.1-.02-.01-.05-.02-.07-.04-.2 0-.36.07-.36.18-.04.47-.6.63-1.26.73-.06-.1-.13-.2-.34-.26.07-.36.63-.3 1-.34.47-.06.76-.3.43-.4-.65-.2-.3-.53-.57-.75-.46-.5-1.45-.42-2.16-.63.22-.48.86-.5 1.52-.38.3.05.56.2.88.03.64-.01 1 .2 1.5.4.98.4.46.52-.13.73zm-1.57-8.2c.04-.01.08-.02.12-.02 0 .01 0 .03.01.04-.04-.01-.1-.01-.13-.02zm1.9.24a1.26 1.26 0 0 0 .1-.03c.01.01.02.02.02.03h-.12zm3.52-13.94c-.34.02-.78 0-.82.27h-.06c-.12-.06-.27-.08-.42-.08h-.03c-.6-.36-1-.37-1.8-.07-.74.28-1.45.5-2.23.04a.9.9 0 0 0-.5-.08c-1.8.1-3.63-.25-5.38.2-.6-.58-1.55-.82-2.52-.65a1.57 1.57 0 0 1-.23-.04c-.3-.01-.57.03-.66.22l-.18.1c.01-.04.04-.1.12-.15-.47-.1-.64.1-.83.28-.36.34-.83.44-1.44.2-.04-.02-.08-.03-.12-.05.5-.01.56-.38 1.06-.4.23-.01.26-.13.13-.23-.1-.1-.28-.13-.46-.05-.17.07-.23.35-.54.17-.57-.32-.76-.04-1.02.16 0 .04-.03.07-.07.1a.3.3 0 0 1 .04.1c-.26.1-.5.2-.75.32-.05 0-.1-.01-.15-.01-.15-.23-.6-.2-.94-.23-.3-.04-.54-.12-.58-.3-.03-.18.23-.23.47-.3.3-.07.74-.1.7-.32-.02-.07-.06-.12-.12-.15.23.01.46-.02.7-.1.45-.12.9-.1 1.36-.01.1.02.2.03.3.04 1.77.3 3.6.25 5.42.33.4.02.8-.05 1.06-.25-.01-.01-.02-.01-.02-.02.02.01.03.01.05.02.05.03.1.05.13.08l.33.06c.37.2.65.5 1.2.3.37-.13.77-.2 1.16-.26.2 0 .42 0 .63.01.54.01 1.1-.05 1.6.06 1 .23 1.9.06 2.76-.2h.2c.12.33.27.35 1.08.4.9.05 1.86-.05 2.68.3-.43.17-.86.2-1.3.2zm7.58 13.25c.04.01.07.02.1.02-.04.01-.07.01-.1.02v-.04zm-2.26-.2c.02.01.04.01.06.02h-.07c0-.01 0-.01.01-.02zm12.15-3.64c0-.01-.01-.02-.02-.02h.04-.02zm12.05-4c.02-.02.05-.04.06-.06a.09.09 0 0 1-.06.06zm-33.3-57.54c.25.04.5.1.74.1 1.76-.08 3.57.04 5.27-.36.3-.07.74-.06.6-.32-.1-.2-.45-.35-.87-.27-.84.17-1.62.25-2.5-.01-.32-.1-.95-.05-1.26.07-.42.16-.8.15-1.24.15h-.55c-.37 0-.66.07-.7.3-.04.2.2.3.52.34z"/><path d="M392.56 117.3c-.01-.01-.18-.02-.2 0-.53.65-1.2.22-1.83.08-.26-.05-.6-.04-.8.1-.5-.02-.9.32-1.68.1.65-.1 1.02-.2 1.3-.4.28-.18.4-.35-.13-.47-.6-.14-1.17-.25-1.7.07-.2.12-.4.24-.64.3-.9.27-1.04.55-.47 1.15.1.18-.06.25-.34.3-.2.04-.42.12-.38.26s.32.14.53.17c.3.05.47 0 .6-.15.1-.1-.2-.24.2-.33.53.6 1.3.43 2.05.14 1.03-.4 2.25-.73 3.36-.5.97.2 1.4-.22 2.18-.23-.87-.07-1.8-.04-2.08-.63zm64.2-103.06c.42-.08.8.06 1.24-.01.77-.1 1.6.4 1.55.86-.01.16-.1.37.26.43.4.07.53-.12.67-.3.3-.38.6-.74 1.56-.8.47-.02 1.08-.37.17-.68-.03-.01-.06-.02-.1-.02-.4-.12-.5-.48-.94-.46-.9.03-1.82.12-2.53.5-.62 0-1.24-.01-1.86-.01-.27 0-.53.03-.5.23.02.16.25.3.5.25zm5.14-.46zm-2.77-.01l-.02.02c0-.01 0-.01-.01-.02h.03zm-175.1 107.06l-1.64-.01c-1.06 0-1.5.26-1.38.87.12.58.9.3 1.45.3.3-.01.66.04.9-.13-.05-.23-.6-.17-.65-.4.38-.23.87-.15 1.33-.14.36.01.54-.08.54-.3s-.3-.2-.54-.2zm77.4-1.07c.3.17.13.3-.08.42-.2.12-.6.27-.7.1-.28-.5-.93-.1-1.35-.24-.2-.06-.43.04-.45.18-.02.15.17.24.4.2.92-.1.6.14.37.38-.2.22.04.42.38.4.55-.06 1.28.02 1.6-.38l.24-.1h.44c.25-.3-.1-.6-.02-.88.5-.37.32-.6-.42-.76-1.02.07-.98.34-.4.7zm122.22-57.22c-.6.06-1.2.12-1.7.6l4.67-.28c.24-.01.4-.12.4-.24 0-.15-.24-.18-.47-.2-.98-.1-1.95.01-2.9.12zm-11.9-7.77c-.65.2-1.26.13-1.9-.02-.26-.06-.62-.14-.74.08-.14.24.12.36.56.42.68.1 1.34.2 2 .1l.58.02c.4.02.97.05 1.05-.18.1-.33-.55-.3-.93-.38-.2-.04-.47-.08-.63-.04zm-299.6-36.1c.33.08.67.17 1.02.2.56.06 1.05-.07 1.26-.36.26-.36-.45-.34-.74-.47-.24-.1-.55-.1-.97-.1l-.4.02c-.53-.02-.82.13-.9.4-.1.36.47.22.74.3zm290.08 40.8c-.17.1.1.3.34.4.2.08.35.02.43-.08.43-.6 1.14-1 2.37-1.1.26-.02.38-.18.34-.34-.02-.03-.03-.06-.02-.1-.86-1-2.23-1.15-3.75-.4-.63.01-1.2-.16-1.8-.23-.35-.04-.7 0-.73.24-.02.2.3.27.6.26.76-.02 1.48.08 2.18.23l-.02.01c.2.36.7.7.04 1.1zM169.62 19.5c.5.03.74-.1.7-.4-.04-.4-.8-.76-1.6-.76-.33.01-.8.04-.63.28.28.4.6.83 1.52.88zm153.12 101.06c-.47.05-.63-.15-.88-.3-.08-.05-.28-.07-.4-.05-.16.02-.16.1-.15.2.06.47.87.9 1.72.92.18-.12.74.27.67-.13-.06-.3.05-.77-.96-.65zm126.76-10.43c-.68-.04-1.43-.45-2.05.07-.6.23-1.24-.32-1.94.06.86-.07.95.42 1.5.55.95.24 1.6-.4 2.52-.32.14 0 .18-.35-.03-.36zm-40.4-96.6c.78-.44 1.6-.02 2.4-.1.48.1 1.1.24 1.33-.1.34-.5 1.7-.7 1.3-1.42-.03-.04.22-.14.34-.2-.5-.16-1-.15-1.5-.23-.53-.08-1.14-.22-1.36.2-.16.3-.46.72.6.8.15.01.6.08.47.32-1.12-.04-1.15-.04-1.53-.45-.12-.13-.22-.22-.47-.18-.26.03-.48.13-.5.3-.02.12.1.24.32.3.26.07.6-.04.82.1h0c-.7-.05-1.43.22-2.1 0-.4-.13-.7-.05-1 .08-.16.07-.17.18-.06.28.25.18.87.36 1 .3zM164.77 19.3c.23-.01.92.02.92-.23 0-.3-.63-.5-1.17-.53-.38-.03-.75.1-.7.37.05.22.15.47.94.4zm124.4 101.8c-.3-.28-.7-.24-1.1-.1-.24.07-.28.2-.17.32.2.22.62.2.97.18.85-.02 1.6-.27 2.75-.17-.98-.44-1.68-.55-2.44-.22zM435.3 92.94c.17-.24-.12-.3-.5-.33-.05 0-.1-.1-.14-.15-.23-.47-.9-.2-1.36-.24-.48-.03-.37.17-.36.33.01.2-.44.67.44.45.52-.13.7-.07 1.08.04.24.08.68.12.84-.1zm53.94 5.34c1.4.13 2.8.2 4.2.03-1.38-.23-2.8-.12-4.2-.03zm-21.96-10.32c-.1-.04-.27-.05-.45-.08-.15.03-.35.04-.48.1-.26.1-.86.12-.66.4.2.27.66.13 1 .05.23-.05.48-.22.63-.2.34.07.77.26.85-.04.1-.36-.6-.1-.9-.22zm-61.22-75.2c.5-.12 1-.1 1.5-.12.23-.01.46-.05.4-.2-.05-.14-.24-.1-.43-.08-.5.1-1 .05-1.55.03-.26-.1-.46-.01-.64.1-.1.07-.15.17-.04.22.22.1.5.1.74.05zm-7.18 104.75c-.2-.05-.67.02-.6.28.1.17.04.42.53.36.4-.05 1.02-.03 1.06-.3.05-.32-.63-.25-.98-.33zm-217-99.07c.18-.01.32-.03.36-.13.03-.1-.9-.78-1.05-.77-.36.03-.45.2-.44.36.01.44.75.37 1.13.54zm36.65-1.33c.33.03.8-.1.77-.33-.03-.32-.55-.14-.88-.2-.3.1-.93-.14-.96.18-.03.35.67.32 1.07.35zm-17.62.83c.37.02.54-.1.48-.3-.06-.17-.27-.34-.6-.24s-.52.03-.77-.04l-.94-.08c-.25-.02-.6-.02-.66.12-.08.17.18.3.5.33.52.52 1.3.18 2 .2zm179.27 101.05c-.25-.01-.57.08-.46.25.14.2.3.46.75.52.28-.01.5-.07.4-.22-.16-.2-.1-.53-.68-.55zm-22.54 1.17c-.5.12-1.2.13-1.1.66l1.1-.2c.24-.04.35-.15.32-.3-.01-.1-.15-.22-.34-.18zm113.9-59.8c-.1.38-.37.66-.3 1 .87-.1.96-.3.3-1z"/><path d="M471.2 61.35h-.01v.01-.01zm-57.1 56.15c-.35 0-.7.07-.75.28-.04.2.37.2.64.26.3-.05.66-.07.66-.32-.01-.2-.3-.22-.55-.22zM436.3 59c.1.2.35.25.67.24.25-.01.57-.02.55-.22-.02-.24-.36-.3-.7-.3-.27.02-.5.1-.5.27zm-2.8 35.03c.01.2.38.18.6.2.3.04.63-.04.62-.24-.01-.16-.33-.2-.6-.22-.3.01-.62.04-.62.25zm.1-77.08c-.01.15.24.22.45.2.33-.01.7-.1.75-.28s-.32-.17-.58-.18c-.28.02-.6.02-.62.25zm41.72 88.63c-.42-.16-.85-.07-1.25-.1.04.47.04.47 1.25.1z"/><path d="M474.07 105.48h0-.01zm-50.5-12.28c-.42.01-.47.23-.5.4-.04.16.12.27.42.3.38.02.9.15 1.03-.15.1-.24-.33-.2-.6-.2-.28-.07.16-.38-.33-.37zm61.5-12.3c.4.24.73.32 1.14.22.13-.03.2-.13.08-.2-.34-.2-.72-.16-1.22-.02zM458.5 94.14c.62.18 1.15.06 1.8.02-.66-.23-1.18-.33-1.8-.02zM424.57 93c-.08.12.1.27.3.28.36.01.78 0 .54-.32-.3-.07-.65-.3-.85.04z"/><path d="M425.42 92.96h0zm9.75-35.12l.03-.18-1.5-.08c.58.42 1.03.33 1.48.26zm46.88 16.46c.56.06.93.17 1.15-.1.1-.13.02-.3-.2-.3-.43-.02-.5.25-.95.4zm-129.3-62.27c.06.02.14 0 .22 0 .24.07.5.1.66-.05.1-.1.07-.2-.1-.28-.32-.17-.5 0-.73.1-.43.02-1.2-.15-1.16.18.05.35.73-.05 1.1.06zm-20.1-.08c.03-.22-.3-.18-.6-.2-.13.04-.43 0-.35.2.05.12.23.2.47.2s.45-.07.47-.2zm-33.8 107.55c-.44-.08-.67.07-.88.33.43.07.8.1 1.05-.08.14-.1.01-.22-.17-.25zm58.48-.1c-.01-.15-.08-.28-.4-.3-.2.03-.34.1-.3.2.06.15.1.35.46.34.2 0 .23-.14.22-.25zm74.52-102.26c.07.04.17.13.26.13.28 0 .44-.12.5-.27.05-.1-.1-.22-.28-.2-.25.04-.43.15-.48.34zm3.65 74.52c-.05-.1-.2-.16-.4-.15-.23.02-.4.08-.4.24a.51.51 0 0 0 .48.17c.23-.02.38-.12.32-.26zm56.08-71.34c-.06-.13-.27-.1-.44-.1s-.28.07-.24.16c.04.1.2.16.4.16.17-.04.33-.1.28-.22zm-128.6 99.72c-.15-.05-.28.01-.35.07-.2.2.04.3.3.37.07-.01.14-.01.2-.01-.01-.15.14-.32-.16-.43zm47.38-1.64c-.25-.01-.4.07-.4.15.02.2.13.26.34.24s.43-.07.43-.22c-.01-.12-.2-.16-.38-.17zm-20.95-2.43c.01-.1-.22-.15-.4-.17-.27-.03-.43.05-.43.2 0 .1.13.18.4.18.18-.02.43-.06.44-.2zm-4.96-101.45h.02zM451.6 14h0zm-69.94 103.15h.01zM308.98 16.1h0zm82.84 2.25c-.15.07-.04.2.12.26.6.18 1.1.13 1.53-.24-.6-.13-1.12-.28-1.65-.02zm-17.8-4.15c.06.1.08.25.34.27.25.02.42-.05.4-.2-.01-.13-.14-.23-.4-.24-.2-.01-.32.06-.36.17zM267.5 17c-.08-.2-.44-.17-.7-.16-.2.01-.45.02-.43.2.14.18.42.2.72.17.2-.02.47-.08.42-.2zm185.53 68.75c-.26 0-.42.07-.4.23.02.2.22.32.55.3.27-.01.47-.14.4-.3-.05-.15-.23-.26-.55-.24zM410.5 17.6c-.45-.02-.83.02-1.07.28.75.1.75.1 1.07-.28zM43.05 46.06c.57.12 1.14.35 1.68.33 2.24-.1 4.37.4 6.57.48.44.2.95.22 1.45.22.33 0 .9.07.9-.17 0-.28-.54-.15-.86-.16l-.93-.2-8.05-.67c-.28-.02-.54-.02-.75.16zM9 62.6c-.36-.17-.8-.34-1.23-.37-.56-.03-.6.38-.74.64-.16.26.01.42.42.46l.72.05c.5-.03 1 .08 1.23-.24.18-.24-.17-.43-.4-.54z"/><path d="M82.5 111.76c-.7.23-1.26.1-1.74-.3-.07-.06-.25-.05-.5-.1-.44.01-.88.2-.97.54-.08.32.45.3.78.33.8.08 1.6.15 2.4-.06.24-.06.3-.14.27-.28a.19.19 0 0 0-.26-.15zM17.4 64.1l-8-.75c.66.37 7.2.93 8 .75zM9.9 32.5c.93.13 1.86.14 2.96.08-1-.37-1.98-.38-2.93-.42-.16-.01-.37.03-.38.15-.01.13.18.17.35.2zm23.58 41.63c.01-.26-.7-.27-1.16-.3-.3.06-.9-.06-.93.23-.03.34.6.15.9.26a.29.29 0 0 0 .16 0c.34-.13 1.03.2 1.04-.2zM22 43c0-.1-.12-.16-.26-.17-1.07-.1-2.08.15-3.1.33h3.1c.17 0 .25-.05.25-.16zm36.54 67.1c-.16-.01-.4.02-.36.14.22.6-.44.3-.84.36l.15.12c.23.22.52.4.93.27.43-.12.13-.5.43-.7.06-.04-.13-.2-.3-.2zM48.26 42.26c-.3.5.3.34.6.38.2.03.52.06.47-.16-.05-.25-.16-.53-.67-.52-.28 0-.68-.03-.4.3zm-23.92-1.1c.65-.15 1.27-.35 2-.2.15.03.33-.06.33-.2.01-.16-.2-.14-.35-.14h-1.06c-.4-.2-.84-.15-1.28-.07-.2.03-.48-.03-.5.18 0 .2.3.17.47.23.02.18.17.24.4.2zm-10.5 20.5c.87.15 1.7.2 2.75.2-2.17-.53-2.17-.53-2.75-.2zm67.82 51.54c-.27.17-.36-.03-.52-.1-.22-.08-.4-.25-.7-.16-.05.02-.1.1-.06.14.14.16.37.27.62.34.14.04.32.03.4.03h.3c.2-.02.5-.05.46-.22-.06-.2-.35-.14-.5-.04zM54.2 60.63c.1-.18-.22-.18-.37-.2-.42-.04-.77.13-1.14.2.01.22.24.27.4.25.4-.05.92.12 1.12-.25zm-15-.3c.03-.23-.28-.33-.53-.35-.27-.02-.55.13-.58.3-.04.24.35.16.53.23.25 0 .55.03.58-.2zm-5.93.38c.26-.03.53-.04.78-.1.23-.05.47-.15.18-.35-.2-.4-.8-.36-1.23-.48.26.28-.4.7.27.93zM31.7 79.6c-.06.14.2.2.4.18.35-.04.64-.2.75-.42.06-.12-.2-.13-.38-.14-.32.04-.66.14-.76.38zm21.7-52.22c-.84-.24-1.42-.18-2-.01.6.1 1.18.2 2 .01zM48.76 41.7c.5.25 1 .02 1.68-.02-1.1-.28-1.1-.28-1.68.02zm27.37 70.7c-.18.01-.38.03-.4.2.1.23.4.2.66.2.17.01.34-.01.32-.16-.02-.26-.3-.27-.58-.26zM35.85 40.15c.22-.05.57-.07.37-.4-.3.34-.72.24-1.2.15.2.34.52.32.82.26zm5.65 67.9c-.17 0-.32.02-.3.2a.44.44 0 0 0 .45.31c.2 0 .33-.1.3-.26-.03-.17-.2-.23-.45-.24zm31.07 4.1c-.13.05-.14.16-.01.23.3.16.55.05.88-.12-.27-.23-.57-.23-.87-.1zm-7-1.05c-.17-.01-.3.03-.34.17.06.16.22.24.45.25.15.01.26-.06.24-.16-.03-.14-.14-.25-.35-.26zm-3.52-.84c-.2 0-.27.1-.3.22-.02.14.1.2.34.2.13-.03.3-.08.28-.24-.01-.14-.16-.18-.33-.18zm-19.2-35.94c-.23-.2-.47-.3-.78-.24-.1.02-.14.12-.05.17.23.13.47.23.83.07zm-33-1.97c-.3-.1-.58-.2-.88-.05-.03.02-.01.13.02.14.3.1.6.1.86-.1zm-3.9-3.97c-.01-.14-.2-.15-.35-.16-.17-.01-.3.04-.34.17.04.14.2.15.36.15.17 0 .34-.02.33-.16zm17.02-7.32c.28.13.53.17.78.05.1-.06.07-.14-.03-.17-.26-.08-.5-.1-.75.12z"/></svg>